<?xml version="1.0" encoding="utf-8" ?><svg xmlns="http://www.w3.org/2000/svg" xmlns:xlink="http://www.w3.org/1999/xlink" width="2112" height="2224" viewBox="0 0 2112 2224"><path fill="#24231F" transform="matrix(1.21799 0 0 1.21796 0 3.05176e-05)" d="M154.446 1220.56C142.442 1191.82 130.265 1169.55 118.597 1138.2C45.3678 945.759 52.4003 731.98 138.118 544.768C223.6 357.569 380.239 212.22 573.288 140.966C765.857 70.2073 978.688 79.1456 1164.65 165.802C1350.25 252.359 1493.95 408.997 1564.24 601.365C1619.87 753.128 1625.96 918.619 1581.64 1074.06C1567.73 1122.77 1551.08 1163.62 1530.1 1209.18C1525.01 1214.84 1460.44 1231.28 1447.98 1234.65C1444.04 1235.71 1434.59 1241.97 1430.49 1244.06C1408.5 1257.39 1387.92 1263.41 1381.75 1292.1C1372.91 1333.21 1379.21 1356.17 1416.69 1375.83C1413.6 1379.49 1403.83 1391.38 1400.59 1393.82C1384.38 1412.56 1345.07 1449.58 1325.13 1464.06C1313.57 1474.36 1237.63 1529.14 1224.74 1532.9L1220.77 1536.25C1236.86 1548.16 1255.69 1562.08 1269.99 1576C1283.48 1589.14 1274.48 1615.95 1271.22 1631.85C1269.04 1642.45 1266.41 1653.85 1264.18 1664.81L1253.15 1720.05C1251.02 1730.74 1249.22 1741.17 1246.32 1751.69C1241.31 1769.87 1229.82 1773.13 1212.55 1773.5C1160.24 1774.64 1107.82 1774.51 1055.49 1774.72L727.782 1774.82L543.763 1774.61L488.748 1774.42C443.966 1774.23 433.068 1776.24 423.971 1728.58C415.36 1686.81 407.59 1644.78 397.938 1603.24C391.271 1574.55 433.641 1547.82 454.746 1533.68L447.347 1528.74C444.08 1527.72 425.056 1515.17 421.259 1512.7C419.399 1512.6 417.237 1512.96 415.458 1513.46C396.78 1518.76 377.257 1512.69 365.116 1497.5C357.929 1488.51 356.529 1481.32 354.479 1470.24C344.573 1475.87 332.945 1484.92 322.09 1489.85C294.239 1502.51 255.383 1516.9 225.118 1521.15C216.754 1522.33 200.464 1517.23 193.362 1517.51C181.779 1517.98 177.61 1522.17 164.438 1519.34C148.959 1516.02 136.934 1507.71 128.505 1494.46C103.237 1454.73 122.586 1422.61 136.713 1383.53C141.245 1370.99 144.056 1357.28 146.841 1344.33C88.9063 1318.93 59.9455 1259.44 132.68 1229.18C139.269 1226.44 148.44 1223.98 154.446 1220.56Z"/><path fill="#783130" transform="matrix(1.21799 0 0 1.21796 0 3.05176e-05)" d="M1215.94 871.355C1236.67 866.222 1249.91 861.946 1269.52 853.417L1269.42 1210.56C1266.84 1214.27 1258.18 1223.76 1254.83 1227.79C1261.04 1231.98 1263.25 1234.03 1267.54 1239.77C1280.52 1227.58 1291.4 1214.05 1303.5 1200.98C1307.23 1196.95 1309.69 1193.03 1313.67 1189.09C1330.98 1187.91 1355.21 1134.73 1390.12 1177.76C1399.47 1185.57 1403.44 1192.64 1408.16 1203.82C1414.46 1218.73 1412.73 1238.75 1430.49 1244.06C1408.5 1257.39 1387.92 1263.41 1381.75 1292.1C1372.91 1333.21 1379.21 1356.17 1416.69 1375.83C1413.6 1379.49 1403.83 1391.38 1400.59 1393.82C1384.38 1412.56 1345.07 1449.58 1325.13 1464.06C1313.57 1474.36 1237.63 1529.14 1224.74 1532.9L1220.77 1536.25C1236.86 1548.16 1255.69 1562.08 1269.99 1576C1283.48 1589.14 1274.48 1615.95 1271.22 1631.85C1269.04 1642.45 1266.41 1653.85 1264.18 1664.81L1253.15 1720.05C1251.02 1730.74 1249.22 1741.17 1246.32 1751.69C1241.31 1769.87 1229.82 1773.13 1212.55 1773.5C1160.24 1774.64 1107.82 1774.51 1055.49 1774.72L727.782 1774.82L543.763 1774.61L488.748 1774.42C443.966 1774.23 433.068 1776.24 423.971 1728.58C415.36 1686.81 407.59 1644.78 397.938 1603.24C391.271 1574.55 433.641 1547.82 454.746 1533.68L447.347 1528.74C444.08 1527.72 425.056 1515.17 421.259 1512.7C419.399 1512.6 417.237 1512.96 415.458 1513.46C396.78 1518.76 377.257 1512.69 365.116 1497.5C357.929 1488.51 356.529 1481.32 354.479 1470.24C344.573 1475.87 332.945 1484.92 322.09 1489.85C294.239 1502.51 255.383 1516.9 225.118 1521.15C216.754 1522.33 200.464 1517.23 193.362 1517.51C181.779 1517.98 177.61 1522.17 164.438 1519.34C148.959 1516.02 136.934 1507.71 128.505 1494.46C103.237 1454.73 122.586 1422.61 136.713 1383.53C141.245 1370.99 144.056 1357.28 146.841 1344.33C88.9063 1318.93 59.9455 1259.44 132.68 1229.18C139.269 1226.44 148.44 1223.98 154.446 1220.56C193.72 1210.29 280.068 1191.42 315.5 1212.69C335.816 1224.89 354.158 1239.85 365.912 1260.86C373.859 1270.71 375.563 1288.46 390.938 1276.83C403.659 1270.84 407.005 1270.93 420.807 1271.22L427.306 1263.23L441.075 1244.84C426.713 1230.32 413.995 1216.71 402.039 1200.16L401.844 1084.67C401.962 1066.78 401.651 1046.85 403.004 1029.21C423.069 1042.34 431.864 1046.42 455.503 1052.56C478.217 1054.19 502.306 1048.82 519.726 1066.75C539.651 1077.64 549.528 1083 572.326 1087.3C598.376 1089.02 610.263 1088.94 634.743 1080.23C645.19 1075.82 653.678 1071.3 662.387 1063.81C671.892 1090.65 677.48 1113.41 688.256 1141.26C695.639 1158.38 712.586 1199.81 722.607 1213.86C730.429 1206.13 735.593 1205.85 745.912 1206.08C766.012 1215.41 803.23 1220.95 809.649 1243.22C815.6 1263.86 817.272 1287.51 821.745 1308.73C826.138 1313.34 835.988 1324.38 841.706 1325.86C842.692 1300.11 835.274 1273.97 839.012 1249.26C844.277 1214.47 887.786 1189.67 913.486 1223.6C922.153 1235.04 930.509 1247.85 938.699 1259.64C939.164 1261.93 942.448 1270.93 943.396 1273.99C946.245 1283.21 948.048 1291.29 950.021 1300.71C966.583 1275.14 980.392 1256.81 1000.41 1234.27C1008.92 1224.68 1019.46 1211.97 1031.12 1205.77C1039.8 1201.14 1062.03 1208.32 1071.79 1210.76C1082.07 1213.33 1084.3 1218.86 1088.65 1227.73L1100.12 1223.06C1129.48 1205.75 1141.85 1180.68 1119.92 1150.48C1131.54 1139.09 1132.56 1132.04 1133.18 1116.61C1139.48 1110.42 1145.68 1104.12 1151.76 1097.72C1185.96 1052.83 1189.26 1030.7 1153.23 985.209C1152.88 949.805 1152.8 914.4 1152.97 878.995C1177.23 877.787 1192.02 875.581 1215.94 871.355Z"/><path fill="#24231F" transform="matrix(1.21799 0 0 1.21796 0 3.05176e-05)" d="M454.746 1533.68C468.545 1543.08 497.591 1559.8 514.035 1562.64C520.776 1563.81 537.794 1563.58 545.367 1563.56L592.328 1563.36L737.697 1563.43L1039.82 1563.47L1119.96 1563.56C1173.42 1563.62 1173.82 1564.57 1220.77 1536.25C1236.86 1548.16 1255.69 1562.08 1269.99 1576C1283.48 1589.14 1274.48 1615.95 1271.22 1631.85C1269.04 1642.45 1266.41 1653.85 1264.18 1664.81L1253.15 1720.05C1251.02 1730.74 1249.22 1741.17 1246.32 1751.69C1241.31 1769.87 1229.82 1773.13 1212.55 1773.5C1160.24 1774.64 1107.82 1774.51 1055.49 1774.72L727.782 1774.82L543.763 1774.61L488.748 1774.42C443.966 1774.23 433.068 1776.24 423.971 1728.58C415.36 1686.81 407.59 1644.78 397.938 1603.24C391.271 1574.55 433.641 1547.82 454.746 1533.68Z"/><path fill="#61211F" transform="matrix(1.21799 0 0 1.21796 0 3.05176e-05)" d="M425.061 1585.35C469.963 1584.01 521.563 1585.25 567.056 1585.25L843.405 1585.27L1108.68 1585.27C1153.89 1585.26 1199.29 1584.99 1244.5 1585.37C1248.72 1585.4 1249.81 1585.78 1253.19 1588.08C1257.81 1595.62 1246.84 1639.86 1244.66 1650.42L1227.98 1731.51C1227.81 1732.79 1227.62 1734.08 1227.41 1735.36C1226.59 1740.26 1225.5 1746.69 1220.79 1749.43C1214.77 1752.93 1066.75 1751.19 1044.42 1751.18L619.523 1751.27L517.801 1751.23C503.795 1751.22 464.07 1752.34 452.378 1748.92C450.688 1745.58 449.112 1741.89 448.312 1738.1C438.369 1691.01 428.606 1643.76 419.343 1596.55C418.388 1591.68 421.63 1588.35 425.061 1585.35Z"/><path fill="#FDFCFA" transform="matrix(1.21799 0 0 1.21796 0 3.05176e-05)" d="M1101.12 1637.22C1112.96 1636.48 1154.01 1635.1 1160.47 1649.52C1166.32 1662.59 1137.2 1673.33 1127.22 1677.57C1132.46 1680.01 1138.22 1683.09 1143.43 1685.74C1146.82 1689.68 1143.22 1696.41 1137.46 1695.43C1128.55 1693.92 1121.53 1688.37 1114.57 1683.07C1114.47 1689.35 1114.52 1692.27 1110.25 1697.21C1092.24 1704.46 1085.27 1644.31 1101.12 1637.22Z"/><path fill="#61211F" transform="matrix(1.21799 0 0 1.21796 0 3.05176e-05)" d="M1113.83 1649.68C1122.95 1649.41 1134.42 1650.52 1143.41 1651.72C1140 1654.36 1136.01 1657.02 1132.44 1659.51C1125.69 1663.25 1119.46 1665.85 1112.41 1668.9C1112.52 1661.43 1112.85 1657.08 1113.83 1649.68Z"/><path fill="#FDFCFA" transform="matrix(1.21799 0 0 1.21796 0 3.05176e-05)" d="M1190.79 1630.22C1202.9 1629.13 1233.07 1633.77 1239.46 1645.41C1247.58 1660.22 1215.69 1672.02 1205.51 1676.28L1192.06 1680.4C1192.32 1686.44 1193.48 1693.07 1188.57 1697.41C1185.41 1700.46 1179.83 1697.92 1178.11 1694.49C1169.33 1676.96 1174.78 1650.04 1178.17 1631.83C1182.01 1631.06 1186.82 1630.66 1190.79 1630.22Z"/><path fill="#61211F" transform="matrix(1.21799 0 0 1.21796 0 3.05176e-05)" d="M1193.02 1644.93C1198.31 1644.87 1220.46 1643.78 1219.52 1651.6C1217.33 1654.45 1214.62 1655.25 1211.29 1656.79L1192.12 1664.67C1192.84 1658.84 1192.85 1650.97 1193.02 1644.93Z"/><path fill="#FDFCFA" transform="matrix(1.21799 0 0 1.21796 0 3.05176e-05)" d="M908.103 1636C919.74 1637.66 925.041 1647.54 929.153 1657.92C933.544 1669 941.478 1684.82 937.957 1696.77C937.479 1698.39 934.977 1700.45 933.323 1700.65C923.432 1701.96 921.141 1691.1 919.283 1684.27C911.1 1685.82 902.866 1687.09 894.596 1688.08C891.31 1695.95 884.961 1715.03 874.562 1713.34C872.918 1712.04 872.342 1712.06 871.671 1710.3C869.669 1705.05 874.36 1691.89 876.698 1686.7C883.551 1671.49 890.46 1652.56 901.2 1639.78C902.337 1638.42 906.474 1636.69 908.103 1636Z"/><path fill="#61211F" transform="matrix(1.21799 0 0 1.21796 0 3.05176e-05)" d="M908.696 1655.43C909.933 1656.73 910.981 1658.21 911.809 1659.8C915.007 1666 912.077 1668.01 907.032 1670.28L904.052 1669.68L903.277 1667.86C903.823 1663.38 906.472 1659.48 908.696 1655.43Z"/><path fill="#FDFCFA" transform="matrix(1.21799 0 0 1.21796 0 3.05176e-05)" d="M533.714 1636C544.272 1637.49 549.946 1646.7 553.56 1655.99C557.339 1665.7 571.987 1695.3 558.421 1701.02C548.076 1700.31 546.719 1692.5 544.878 1684.14L519.564 1688.57C517.042 1694.74 505.823 1724.33 496.615 1709.73C495.409 1700.94 504.512 1679.16 508.116 1672.23C514.915 1659.15 520.27 1641.05 533.714 1636Z"/><path fill="#61211F" transform="matrix(1.21799 0 0 1.21796 0 3.05176e-05)" d="M533.673 1655.38C538.987 1660.12 540.215 1665.09 534.44 1669.93C532.028 1670.06 531.969 1670.17 529.67 1669.57L528.638 1667.48C528.965 1663.35 531.665 1659.2 533.673 1655.38Z"/><path fill="#FDFCFA" transform="matrix(1.21799 0 0 1.21796 0 3.05176e-05)" d="M772.898 1645.3C781.751 1644.92 834.116 1641.62 828.64 1663.87C826.529 1672.45 806.438 1679.83 797.778 1683.45C804.202 1686.55 808.781 1688.62 814.649 1692.61C812.229 1709.93 793.162 1693.78 785.645 1688.55C785.397 1694.56 785.747 1701.08 778.936 1702.97C764.512 1699.62 758.11 1655.43 772.898 1645.3Z"/><path fill="#61211F" transform="matrix(1.21799 0 0 1.21796 0 3.05176e-05)" d="M784.642 1657.49C795.727 1657.38 802.132 1657.71 812.975 1658.84C808.871 1662.29 806.394 1663.94 801.939 1666.85C796.216 1670.1 789.644 1672.77 783.564 1675.4C784.242 1669.45 784.394 1663.48 784.642 1657.49Z"/><path fill="#FDFCFA" transform="matrix(1.21799 0 0 1.21796 0 3.05176e-05)" d="M601.519 1639.88C625.061 1641.95 629.861 1647.27 626.82 1671.15C630.906 1675.65 640.443 1686.13 630.683 1690.4C626.566 1690.03 622.698 1687.63 618.889 1685.73C616.147 1685.56 615.127 1686.63 612.747 1688.15L611.801 1688.77C598.168 1696.97 582.17 1692.36 577.119 1676.71C574.732 1669.28 575.567 1661.19 579.421 1654.41C584.606 1645.34 592.044 1642.23 601.519 1639.88Z"/><path fill="#61211F" transform="matrix(1.21799 0 0 1.21796 0 3.05176e-05)" d="M599.203 1656.71L600.714 1658C601.588 1664.87 602.328 1667 604.879 1673.15C601.464 1676.74 598.315 1680.71 593.29 1677.59C589.141 1670.12 594.378 1662.19 599.203 1656.71Z"/><path fill="#783130" transform="matrix(1.21799 0 0 1.21796 0 3.05176e-05)" d="M599.203 1656.71C602.765 1654.32 604.781 1652.6 609.19 1654.16C608.193 1657.54 603.948 1657.46 600.714 1658L599.203 1656.71Z"/><path fill="#FDFCFA" transform="matrix(1.21799 0 0 1.21796 0 3.05176e-05)" d="M739.412 1631.09C744.485 1630.23 754.168 1631.38 758.052 1635.18C760.876 1645.73 737.973 1647.25 731.08 1648.14C729.94 1656.2 729.145 1665.73 728.271 1673.88C734.172 1672.78 754.961 1669.81 755.221 1678.99C748.995 1686.08 736.786 1683.31 729.371 1690.83C728.488 1693.88 728.338 1692.48 729.592 1695.18C733.494 1696.33 738.056 1695.15 742.249 1694.51C747.055 1695.38 753.397 1696.78 755.073 1701.81C749.726 1707.86 735.977 1714.8 728.168 1713.42C702.932 1708.96 712.113 1653.97 714.278 1636.81C723.441 1632.83 729.414 1632.32 739.412 1631.09Z"/><path fill="#FDFCFA" transform="matrix(1.21799 0 0 1.21796 0 3.05176e-05)" d="M688.324 1640.54C696.199 1640.1 699.903 1643.42 700.088 1651.4C700.417 1665.58 692.95 1680.31 684.021 1690.97C675.289 1701.4 659.655 1706.24 648.701 1696.25C641.925 1689.94 642.635 1677.12 642.69 1668.37C643.103 1663.63 645.763 1647.95 652.305 1648.28C673.767 1649.37 653.501 1683.86 661.868 1690.03C676.872 1688.3 678.07 1647.95 688.324 1640.54Z"/><path fill="#FDFCFA" transform="matrix(1.21799 0 0 1.21796 0 3.05176e-05)" d="M1019.75 1623.61C1023.85 1623.94 1029.44 1624.73 1031.81 1628.3C1032.05 1639.56 1006.97 1648.14 1001.49 1661.92C993.521 1681.93 1025.75 1689.78 1030.73 1704.11C1030.31 1707.97 1030.5 1706.71 1027.77 1710.21C1024.34 1710.11 1020.96 1709.42 1017.77 1708.16C996.546 1699.93 974.237 1674.42 985.455 1650.49C992.372 1635.73 1005.09 1628.83 1019.75 1623.61Z"/><path fill="#FDFCFA" transform="matrix(1.21799 0 0 1.21796 0 3.05176e-05)" d="M1048.74 1640.64C1084.98 1638.38 1088.59 1670.76 1059.9 1687.53C1026.93 1691.53 1020.13 1657.3 1048.74 1640.64Z"/><path fill="#61211F" transform="matrix(1.21799 0 0 1.21796 0 3.05176e-05)" d="M1058.55 1654.63C1060.18 1654.95 1059.89 1655.03 1061.41 1655.96L1061.96 1658.4C1059.81 1665.8 1054.59 1669.69 1048.31 1673.56L1046.71 1672.5C1043.44 1665.92 1053.84 1658.12 1058.55 1654.63Z"/><path fill="#FDFCFA" transform="matrix(1.21799 0 0 1.21796 0 3.05176e-05)" d="M481.744 1641.83C488.854 1641.64 501.861 1640.87 505.411 1648.02L504.543 1650.39C497.931 1656.24 488.747 1655.58 480.21 1655.78C480.359 1662.02 480.88 1668.26 481.078 1674.48C481.448 1686.15 485.53 1708.21 465.937 1698.48C459.589 1689.72 461.561 1669.36 461.883 1658.45C453.711 1658.59 441.891 1659.77 437.385 1651.57C438.593 1642.07 473.542 1642.18 481.744 1641.83Z"/><path fill="#FDFCFA" transform="matrix(1.21799 0 0 1.21796 0 3.05176e-05)" d="M844.097 1646.57C860.965 1646.71 861.249 1656.24 860.851 1671.01C860.611 1679.92 859.086 1687.63 856.696 1696.2C836.93 1693.3 839.269 1660.63 844.097 1646.57Z"/><path fill="#FDFCFA" transform="matrix(1.21799 0 0 1.21796 0 3.05176e-05)" d="M856.711 1614.67C860.388 1614.42 860.321 1614.41 863.919 1615.22C866.505 1617.36 865.781 1616.05 866.41 1619.12C864.429 1626.78 857.568 1631.6 851.268 1635.63C847.642 1636.16 847.436 1636.19 843.865 1635.57C841.343 1633.61 842.092 1634.87 841.615 1631.64C843.822 1624.11 850.494 1618.88 856.711 1614.67Z"/><defs><linearGradient id="gradient_0" gradientUnits="userSpaceOnUse" x1="913.82953" y1="1314.9707" x2="960.4361" y2="1579.0394"><stop offset="0" stop-color="#9E7930"/><stop offset="1" stop-color="#C3953C"/></linearGradient></defs><path fill="url(#gradient_0)" transform="matrix(1.21799 0 0 1.21796 0 3.05176e-05)" d="M1390.12 1177.76C1399.47 1185.57 1403.44 1192.64 1408.16 1203.82C1414.46 1218.73 1412.73 1238.75 1430.49 1244.06C1408.5 1257.39 1387.92 1263.41 1381.75 1292.1C1372.91 1333.21 1379.21 1356.17 1416.69 1375.83C1413.6 1379.49 1403.83 1391.38 1400.59 1393.82C1384.38 1412.56 1345.07 1449.58 1325.13 1464.06C1313.57 1474.36 1237.63 1529.14 1224.74 1532.9L1220.77 1536.25C1173.82 1564.57 1173.42 1563.62 1119.96 1563.56L1039.82 1563.47L737.697 1563.43L592.328 1563.36L545.367 1563.56C537.794 1563.58 520.776 1563.81 514.035 1562.64C497.591 1559.8 468.545 1543.08 454.746 1533.68L447.347 1528.74C444.08 1527.72 425.056 1515.17 421.259 1512.7C434.349 1506.08 441.269 1500.62 448.115 1487.44C458.724 1494.03 489.39 1505.42 502.41 1510.75C526.836 1520.75 560.294 1530.84 586.487 1526.28C591.637 1526.07 608.64 1517.01 612.556 1517.25C640.803 1519.03 667.478 1506.76 678.067 1479.26C680.126 1473.92 681.648 1466.59 684.203 1460.04C694.313 1461.84 703.005 1460.72 713.144 1462.41C719.576 1469.22 724.676 1475.03 730.682 1482.19C731.124 1486.97 732.058 1493.19 735.164 1496.93C743.374 1506.56 758.455 1515.43 771.203 1517.22C806.404 1522.14 840.807 1487.64 851.456 1456.83C852.468 1453.9 853.527 1439.46 854.105 1435.32C857.944 1448.53 863.845 1476.74 871.78 1487.6C881.746 1499.87 897.582 1515.94 914.255 1517.41C950.046 1520.57 971.706 1495.55 976.101 1462.31C984.461 1452.03 1003.3 1417.39 1014.71 1416.27C1017.17 1423.92 1016.52 1434.35 1019.21 1443.31C1045.46 1530.57 1137.45 1528.62 1209.6 1506.92C1263.96 1490.56 1326.11 1460.18 1316.43 1393.88C1315.55 1387.84 1312.81 1381.79 1311.37 1375.86C1308.34 1356.6 1296.85 1340.07 1291.55 1322.29L1291.14 1320.9C1325.27 1319.36 1348.35 1294.21 1373.86 1274.64C1382.5 1267.26 1395.77 1259.78 1403.11 1251.36C1417.3 1235.12 1411.85 1208.09 1399.88 1192.16C1396.37 1187.49 1392.53 1182.61 1390.12 1177.76Z"/><path fill="#E9B24C" transform="matrix(1.21799 0 0 1.21796 0 3.05176e-05)" d="M447.347 1528.74C474.532 1525.1 499.242 1540.54 524.364 1548.06C551.975 1556.32 579.179 1555.73 607.182 1549.71C627.134 1545.43 653.676 1540.01 669.638 1526.99C679.566 1518.89 686.549 1507.55 698.899 1502.63C703.973 1500.61 707.148 1502.35 711.149 1505.45C717.883 1510.65 722.939 1517.89 729.035 1523.78C743.409 1537.67 765.908 1545.6 785.792 1543.54C815.381 1540.48 836.04 1515.14 852.876 1514.37C870.015 1513.58 896.76 1559.95 947.348 1538.44C957.867 1533.96 967.784 1527.66 974.946 1518.63C980.925 1511.09 992.945 1486.44 1002.44 1484.7C1006.83 1483.89 1011.78 1487.56 1014.84 1490.24C1023.68 1497.98 1029.42 1508.84 1038.05 1516.71C1068.13 1544.16 1111.6 1547.85 1150.28 1545.74C1160.62 1545.22 1170.9 1543.94 1181.05 1541.89C1192.16 1539.57 1214.98 1531.46 1224.74 1532.9L1220.77 1536.25C1173.82 1564.57 1173.42 1563.62 1119.96 1563.56L1039.82 1563.47L737.697 1563.43L592.328 1563.36L545.367 1563.56C537.794 1563.58 520.776 1563.81 514.035 1562.64C497.591 1559.8 468.545 1543.08 454.746 1533.68L447.347 1528.74Z"/><path fill="#E9B24C" transform="matrix(1.21799 0 0 1.21796 0 3.05176e-05)" d="M1325.13 1464.06C1324.71 1458.24 1331.29 1443.03 1333.24 1435.84C1334.71 1430.21 1335.54 1424.42 1335.7 1418.6C1336.51 1395.46 1329.47 1381.46 1325.48 1359.66C1324.16 1353.34 1328.91 1343.75 1333.71 1339.2C1361.58 1312.84 1366.81 1376.05 1386.21 1386.46C1392.29 1389.73 1391.36 1394.24 1400.59 1393.82C1384.38 1412.56 1345.07 1449.58 1325.13 1464.06Z"/><path fill="#61211F" transform="matrix(1.21799 0 0 1.21796 0 3.05176e-05)" d="M1152.97 878.995C1177.23 877.787 1192.02 875.581 1215.94 871.355L1216.01 1083.09L1215.97 1146.87C1215.95 1165.12 1215.63 1182.47 1217.56 1200.67C1212.72 1199.89 1200.7 1197.24 1197.15 1199.58C1183.14 1208.81 1166.27 1217.64 1153.15 1227.74C1148.15 1221.69 1158.8 1110.52 1151.76 1097.72C1185.96 1052.83 1189.26 1030.7 1153.23 985.209C1152.88 949.805 1152.8 914.4 1152.97 878.995Z"/><path fill="#61211F" transform="matrix(1.21799 0 0 1.21796 0 3.05176e-05)" d="M572.326 1087.3C598.376 1089.02 610.263 1088.94 634.743 1080.23L634.737 1246C634.765 1257.03 635.093 1268.06 635.72 1279.07C636.022 1285.2 637.559 1299.71 635.066 1304.55C625.76 1322.64 619.437 1344.59 609.279 1361.8C606.533 1360.7 603.84 1359.47 601.207 1358.12C610.651 1326.78 600.114 1305.12 588.161 1276.81C583.245 1265.16 578.401 1255.97 570.887 1245.81C572.892 1192.69 572.341 1140.44 572.326 1087.3Z"/><path fill="#61211F" transform="matrix(1.21799 0 0 1.21796 0 3.05176e-05)" d="M455.503 1052.56C478.217 1054.19 502.306 1048.82 519.726 1066.75C517.471 1108.31 519.409 1162.28 519.589 1204.98C487.914 1200.9 478.469 1210.26 454.636 1227.64C454.44 1214.28 455.461 1200.84 455.593 1187.51L455.615 1100.49C455.653 1086.76 456.571 1065.75 455.503 1052.56Z"/><path fill="#61211F" transform="matrix(1.21799 0 0 1.21796 0 3.05176e-05)" d="M688.256 1141.26C695.639 1158.38 712.586 1199.81 722.607 1213.86C716.045 1222.69 697.984 1254.5 686.427 1249.48C688.824 1241.22 688.234 1216.13 688.256 1206.55L688.256 1141.26Z"/><path fill="#896929" transform="matrix(1.21799 0 0 1.21796 0 3.05176e-05)" d="M365.912 1260.86C373.859 1270.71 375.563 1288.46 390.938 1276.83C387.022 1284.28 384.327 1287.72 381.348 1296.26C372.801 1320.79 371.141 1345.01 362.946 1369.95C355.056 1361.94 347.856 1354.56 339.163 1347.38C363.904 1320.35 379.316 1297.8 365.912 1260.86Z"/><path fill="#896929" transform="matrix(1.21799 0 0 1.21796 0 3.05176e-05)" d="M589.373 1379.03L598.95 1383.38C592.737 1395.54 587.128 1407.99 582.144 1420.7C567.786 1418.15 555.881 1415.56 541.93 1411.5C562.874 1401.55 573.376 1396.14 589.373 1379.03Z"/><path fill="#24231F" transform="matrix(1.21799 0 0 1.21796 0 3.05176e-05)" d="M821.745 1308.73C826.138 1313.34 835.988 1324.38 841.706 1325.86C842.682 1329.14 842.204 1334.95 842.104 1338.6C835.439 1335.81 833.15 1335.15 826.243 1334.36C824.454 1325.88 823.14 1317.28 821.745 1308.73Z"/><path fill="#61211F" transform="matrix(1.21799 0 0 1.21796 0 3.05176e-05)" d="M1088.65 1227.73L1100.12 1223.06C1100.17 1233.32 1100.27 1243.47 1100.48 1253.73C1100.58 1258.49 1102.26 1268.85 1101.64 1272.23L1100.43 1272.99C1098.83 1253.06 1098.27 1247.11 1088.65 1227.73Z"/><path fill="#24231F" transform="matrix(1.21799 0 0 1.21796 0 3.05176e-05)" d="M601.207 1358.12C603.84 1359.47 606.533 1360.7 609.279 1361.8C605.87 1368.87 602.157 1376.26 598.95 1383.38L589.373 1379.03C595.412 1371.33 597.513 1367.18 601.207 1358.12Z"/><path fill="#FDFCFA" transform="matrix(1.21799 0 0 1.21796 0 3.05176e-05)" d="M259.958 1228.26C261.231 1228.1 265.544 1227.8 266.902 1227.62C269.335 1227.3 298.516 1230.94 298.304 1230.79C308.809 1238.51 320.694 1245.33 330.45 1254.01C370.774 1289.87 327.435 1323.2 303.724 1348.96C314.797 1361.05 329.845 1369.42 340.772 1381.92C349.113 1391.45 352.418 1399.79 356.859 1411.45C355.239 1418.93 353.359 1428.13 350.772 1435.37C343.694 1455.2 318.702 1465.56 300.962 1473.91C286.035 1480.94 271.157 1484.43 255.478 1489.03C247.655 1491.32 238.098 1497.21 229.476 1498.07C227.08 1498.32 222.914 1496.52 220.51 1495.59C211.681 1497.41 212.406 1500.4 202.201 1494.01C199.38 1492.24 195.13 1489.97 192.115 1488.22L189.006 1487.46C186.184 1488.63 182.219 1494.21 179.912 1496.89L164.894 1496.46C151.181 1487.38 145.848 1474.17 138.982 1459.79C139.797 1452.55 141.494 1448.64 143.324 1441.72C152.961 1405.24 167.552 1370.42 175.529 1333.31C176.931 1326.8 183.609 1308.41 178.109 1304.1C171.247 1304.87 169.173 1313.32 167.652 1318.85C161.867 1319.53 156.073 1320.13 150.27 1320.63C128.349 1310.46 121.574 1298.67 111.038 1277.98C128.195 1246.05 160.894 1244.94 192.185 1237.33C217.485 1231.17 234.378 1229.85 259.958 1228.26Z"/><path fill="#783130" transform="matrix(1.21799 0 0 1.21796 0 3.05176e-05)" d="M266.159 1379.62C272.798 1378.88 285.466 1380.4 291.769 1382.26C337.665 1395.81 245.439 1430.51 236.502 1434.34C225.381 1438.75 215.668 1440.75 204.079 1443.27C210.954 1426.25 217.183 1406.26 223.2 1388.67C237.283 1386.64 250.498 1381.56 266.159 1379.62Z"/><path fill="#783130" transform="matrix(1.21799 0 0 1.21796 0 3.05176e-05)" d="M258.828 1279.79C264.606 1279.11 275.051 1279.3 281.186 1279.24C273.28 1287.75 239.776 1321.41 228.7 1317.19C219.989 1307.05 214.221 1303.66 203.351 1295.83C221.604 1285.65 238.311 1282.26 258.828 1279.79Z"/><path fill="#FDFCFA" transform="matrix(1.21799 0 0 1.21796 0 3.05176e-05)" d="M1202.94 1223.06C1226.38 1225.33 1228.25 1238.19 1244.15 1252.33C1248.95 1256.6 1249.96 1259.76 1252.5 1265.68C1251.27 1268.47 1244.79 1281.57 1245.27 1283.01C1253.27 1307.23 1269.53 1334.54 1280.07 1356.97C1283.96 1370.19 1290.93 1388.49 1292.6 1401.78C1300.67 1465.82 1186.82 1489.72 1142.68 1494.17C1116.29 1490.99 1094.98 1496.57 1071.83 1479.27C1016.56 1437.99 1047.46 1368.25 1084.33 1326.19C1094.14 1315 1098.97 1306.19 1112.33 1297.57C1118.85 1292.38 1125.18 1284.25 1131.71 1279.34C1147.15 1267.74 1164.83 1255.48 1176.09 1239.56L1176.85 1238.46L1189.48 1238.34C1193.86 1230.78 1196.45 1228.43 1202.94 1223.06Z"/><path fill="#783130" transform="matrix(1.21799 0 0 1.21796 0 3.05176e-05)" d="M1203.18 1319.53L1204.41 1319.79C1209.01 1324.47 1235.65 1376.11 1236.1 1382.02C1238.92 1419.34 1150.74 1429.49 1127.99 1431.48C1116.39 1432.45 1108.17 1429.23 1098.39 1423.9C1105.69 1379.02 1144.84 1348.98 1178.07 1322.91C1191.4 1327.84 1190.09 1326.81 1203.18 1319.53Z"/><defs><linearGradient id="gradient_1" gradientUnits="userSpaceOnUse" x1="1158.2427" y1="1363.0001" x2="1174.1801" y2="1399.5031"><stop offset="0" stop-color="#886829"/><stop offset="1" stop-color="#AC8335"/></linearGradient></defs><path fill="url(#gradient_1)" transform="matrix(1.21799 0 0 1.21796 0 3.05176e-05)" d="M1182.1 1350.87L1194.37 1350.94C1199.54 1362.13 1205.44 1372.58 1211.38 1383.37C1187.58 1397.09 1183.36 1398.13 1156.94 1404.02C1147.7 1405.02 1140.28 1405.72 1130.94 1406.08C1146.88 1378.73 1157.49 1370.09 1182.1 1350.87Z"/><path fill="#FDFCFA" transform="matrix(1.21799 0 0 1.21796 0 3.05176e-05)" d="M502.93 1227.85C504.765 1227.58 506.794 1227.18 508.604 1228.03C521.662 1234.92 541.93 1250.63 550.857 1262.25C566.354 1282.43 588.574 1326.5 577.709 1351.36C561.851 1387.64 511.569 1393.64 479.279 1407.6C505.766 1431.19 537.891 1437.14 571.679 1443.61C564.17 1462.79 577.728 1484.76 588.851 1500.07C563.361 1506.9 543.439 1499.19 519.665 1490.78C479.763 1476.68 467.1 1471.98 434.952 1443.38C431.504 1458.86 428.704 1478.66 415.176 1486.83C410.835 1489.45 407.62 1490.9 402.963 1494.05C369.033 1476.79 387.459 1472.96 375.012 1455.88C374.805 1455.59 374.592 1455.32 374.381 1455.03L374.644 1455.03C377.194 1422.15 384.731 1393.07 391.007 1360.56C395.249 1341.03 398.007 1320.95 404.792 1302.08C409.083 1290.14 418.237 1296.83 425.423 1301.14C456.796 1274.42 460.624 1239.85 502.93 1227.85Z"/><path fill="#783130" transform="matrix(1.21799 0 0 1.21796 0 3.05176e-05)" d="M496.602 1300.05C512.527 1307.35 516.221 1315.32 520.973 1331.15C507.605 1337.12 494.17 1342.18 480.521 1347.42L459.058 1352.49C468.41 1324.01 478.335 1322.62 496.602 1300.05Z"/><path fill="#FDFCFA" transform="matrix(1.21799 0 0 1.21796 0 3.05176e-05)" d="M740.347 1229.92C753.676 1237.57 766.761 1238.26 779.413 1243.97C790.182 1248.82 791.082 1279.72 793.231 1290.96C797.691 1314.28 800.985 1338.19 809.017 1360.97C815.992 1360.32 819.871 1359.67 826.743 1358.19L831.001 1365.75C848.908 1370.71 847.449 1375.16 847.911 1391.99C839.533 1401.23 833.546 1404.93 822.817 1411.17C826.723 1430.48 831.233 1446.93 819.938 1464.62C811.695 1477.76 799.461 1488.95 784.076 1492.63C772.505 1495.4 764.868 1489.03 755.689 1483.28L756.996 1473.52C750.764 1467.34 745.109 1461.05 739.215 1454.57C748.234 1452.23 755.153 1450.51 763.417 1446.21C780.597 1413.95 731.235 1434.85 714.727 1435.76L713.392 1435.83C687.205 1437.13 688.024 1427.9 681.184 1406.08C677.229 1419 669.716 1424.83 665.616 1435.45C653.644 1466.48 659.343 1487.63 618.058 1492.25C613.516 1487.58 607.479 1483.01 602.32 1478.88C599.694 1467.65 600.225 1465.58 592.894 1457.36C596.63 1451.94 597.251 1449.48 599.093 1443.2C608.397 1411.47 627.147 1382.75 640.464 1352.83C652.865 1324.98 661.283 1301.24 679.979 1276.23C687.411 1274.27 691.102 1274.36 698.439 1274.97C717.979 1264.43 728.251 1247.8 740.347 1229.92Z"/><path fill="#783130" transform="matrix(1.21799 0 0 1.21796 0 3.05176e-05)" d="M735.99 1322.84C739.539 1326.42 747.917 1366.23 749.783 1374.46C736.163 1377.07 722.382 1378.74 708.535 1379.48L695.166 1380.35C708.485 1358.85 720.403 1342.51 735.99 1322.84Z"/><path fill="#FDFCFA" transform="matrix(1.21799 0 0 1.21796 0 3.05176e-05)" d="M1039.89 1227.83C1049.68 1231.42 1054.74 1232.66 1065.04 1234.18C1075.6 1257.11 1080.05 1269.6 1065.49 1292.64C1058.5 1303.7 1049.99 1312.82 1041.57 1322.76C1020.16 1348.01 1000.05 1373.06 985.682 1403.08C984.418 1405.68 976.086 1412.6 975.529 1414.64C970.592 1432.69 964.84 1437.96 952.273 1451C951.489 1468.61 945.49 1491.87 923.146 1493.62C908.927 1494.73 901.491 1482 892.051 1473.23C890.687 1459.98 886.312 1455.79 882.965 1443.37C877.684 1423.27 873.784 1402.83 871.292 1382.2C871.137 1371.81 866.449 1360.61 866.714 1352.51C867.835 1318.27 862.579 1284.41 863.653 1250.44C863.878 1243.32 875.874 1234.66 880.953 1230.59C893.628 1235.61 896.6 1237.6 899.841 1250.92C935.874 1283.01 923.077 1326.35 933.204 1370.87C954.319 1339.41 973.975 1306.25 996.792 1276.02C1009.55 1259.12 1025.21 1243.01 1039.89 1227.83Z"/><path fill="#FDFCFA" transform="matrix(1.21799 0 0 1.21796 0 3.05176e-05)" d="M1359.23 1185.56L1359.98 1186.07L1361.23 1186.93C1374.13 1195.77 1391.43 1214.27 1386.5 1231.22C1381.36 1237.78 1370.63 1244.32 1363.98 1249.97C1344.68 1266.36 1330.41 1280.74 1307.49 1292.62C1304.13 1293.82 1299.09 1295.09 1295.53 1296.11C1292.36 1293.46 1289.9 1291.02 1286.97 1288.15C1284.78 1280.9 1283.97 1271.77 1281.24 1262.66C1297.99 1239.14 1337.03 1203.91 1359.23 1185.56Z"/><path fill="#24231F" transform="matrix(1.21799 0 0 1.21796 0 3.05176e-05)" d="M1020.62 1389.77C1021.41 1394.64 1018.91 1407.56 1018.02 1413.03L1008.55 1416.4C1006.74 1410.61 1017.31 1395.15 1020.62 1389.77Z"/><path fill="#24231F" transform="matrix(1.21799 0 0 1.21796 0 3.05176e-05)" d="M851.247 1420.78C855.806 1424.88 856.071 1431.61 854.823 1437.25C849.032 1431.5 849.223 1428.4 851.247 1420.78Z"/><path fill="#E9B24C" transform="matrix(1.21799 0 0 1.21796 0 3.05176e-05)" d="M154.446 1220.56C142.442 1191.82 130.265 1169.55 118.597 1138.2C45.3678 945.759 52.4003 731.98 138.118 544.768C223.6 357.569 380.239 212.22 573.288 140.966C765.857 70.2073 978.688 79.1456 1164.65 165.802C1350.25 252.359 1493.95 408.997 1564.24 601.365C1619.87 753.128 1625.96 918.619 1581.64 1074.06C1567.73 1122.77 1551.08 1163.62 1530.1 1209.18C1525.01 1214.84 1460.44 1231.28 1447.98 1234.65C1444.04 1235.71 1434.59 1241.97 1430.49 1244.06C1412.73 1238.75 1414.46 1218.73 1408.16 1203.82C1403.44 1192.64 1399.47 1185.57 1390.12 1177.76C1355.21 1134.73 1330.98 1187.91 1313.67 1189.09C1332.35 1160.44 1347.88 1135.46 1362.65 1104.23C1416.16 990.064 1431.1 861.593 1405.21 738.195C1373.5 587.901 1283.3 456.4 1154.52 372.703C1113.41 345.923 1074.79 327.807 1028.99 311.276L1028.38 310.294C1022.64 300.948 1019.67 289.918 1014.34 280.556C1001.14 257.342 978.67 234.096 951.977 227.532C906.207 216.278 864.581 248.624 835.116 279.747C774.599 281.35 731.269 286.693 673.118 303.597C662.234 306.862 651.488 310.573 640.909 314.721C634.485 317.205 621.071 322.906 614.663 323.783C602.553 325.441 587.426 325.288 575.021 325.755C548.785 326.744 523.201 328.511 497.294 332.857C485.405 334.852 461.152 343.769 451.044 340.083C454.263 336.034 474.395 338.57 479.541 329.91C478.595 322.96 460.461 326.494 455.285 327.195C461.618 317.287 488.561 277.919 453.115 284.618C441.455 286.822 421.313 301.886 412.447 309.927C419.502 327.459 425.102 335.2 438.635 348.463C429.195 352.388 418.657 356.854 409.694 361.807C403.038 354.917 395.71 347.59 389.676 340.215C395.306 334.355 402.63 327.753 405.173 320.16L404.583 318.288C393.559 314.219 354.894 354.449 356.95 364.49C363.962 366.647 375.18 356.053 379.715 351.429L396.625 370.506C344.584 413.061 351.444 462.956 369.134 521.339C317.942 597.807 283.423 672.725 268.881 764.404C265.129 788.06 264.749 810.326 261.629 833.502C257.936 860.929 247.147 879.674 252.562 909.747C255.264 924.755 265.344 934.723 267.702 945.452C272.84 968.835 276.304 990.492 282.924 1013.81C309.556 1107.67 359.182 1193.4 427.306 1263.23L420.807 1271.22C407.005 1270.93 403.659 1270.84 390.938 1276.83C375.563 1288.46 373.859 1270.71 365.912 1260.86C354.158 1239.85 335.816 1224.89 315.5 1212.69C280.068 1191.42 193.72 1210.29 154.446 1220.56Z"/><path fill="#24231F" transform="matrix(1.21799 0 0 1.21796 0 3.05176e-05)" d="M317.746 401.279C340.557 400.756 334.555 428.01 332.12 442.88C329.733 457.453 325.901 475.493 318.354 488.091C306.919 485.142 301.79 481.32 292.048 474.791C285.261 469.452 278.77 463.746 272.604 457.7C269.553 458.217 267.435 458.94 264.577 457.905C262.519 453.133 268.588 446.762 271.595 443.054C285.037 426.475 297.433 409.634 317.746 401.279Z"/><path fill="#E9B24C" transform="matrix(1.21799 0 0 1.21796 0 3.05176e-05)" d="M315.851 411.711C318.311 412.26 317.143 411.794 319.137 413.732C322.966 426.001 314.781 457.385 310.566 470.076C306.002 467.699 300.981 464.102 296.625 461.168C291.482 457.214 286.509 452.623 281.65 448.289C291.282 433.779 302.689 422.785 315.851 411.711Z"/><path fill="#24231F" transform="matrix(1.21799 0 0 1.21796 0 3.05176e-05)" d="M1098.47 201.179C1111.89 202.075 1143.01 216.347 1143.46 232.894C1143.88 248.295 1114.91 246.984 1103.88 246.976C1108.34 252.972 1109.25 255.22 1110.51 262.372C1101.09 275.946 1073.33 277.289 1070.67 261.663C1068.24 247.385 1090.47 212.061 1098.47 201.179Z"/><path fill="#E9B24C" transform="matrix(1.21799 0 0 1.21796 0 3.05176e-05)" d="M1106.32 213.564C1113.76 215.63 1124.7 220.537 1128.34 227.604C1128.55 234.378 1124.2 234.762 1118.54 236.264C1110.14 236.547 1102.99 236.292 1094.64 235.971C1097.98 228.585 1102.44 220.755 1106.32 213.564Z"/><path fill="#E9B24C" transform="matrix(1.21799 0 0 1.21796 0 3.05176e-05)" d="M1088.73 247.481C1091.92 250.152 1094.07 251.842 1094.3 256.22C1093.24 259.457 1092.7 259.57 1089.82 261.732C1086.09 261.328 1085.6 261.624 1083.79 258.598C1083.87 254.795 1086.7 250.971 1088.73 247.481Z"/><path fill="#24231F" transform="matrix(1.21799 0 0 1.21796 0 3.05176e-05)" d="M1162.93 243.094C1167.01 244.369 1170.55 246.525 1174.6 248.319C1192.15 256.091 1234.67 291.599 1187.05 291.607C1180.54 291.608 1172.37 290.256 1165.46 289.343C1167.62 293.856 1170.89 299.188 1173.44 303.599C1174.98 306.646 1175.16 307.052 1174.68 309.856C1164.68 315.872 1155.93 294.679 1152.23 287.341C1150.52 292.695 1150.27 295.633 1145.24 298.297C1140.18 298.129 1138.8 293.555 1138.89 289.07C1139.26 271.434 1151.65 255.53 1162.93 243.094Z"/><path fill="#E9B24C" transform="matrix(1.21799 0 0 1.21796 0 3.05176e-05)" d="M1170.24 257.208C1177.9 261.001 1188.04 265.988 1192.9 273.109C1193.33 275.97 1193.65 274.721 1192.05 277.01C1189.07 278.646 1186.28 278.247 1182.78 278.257C1174.91 278.231 1165.44 276.739 1157.74 275.109C1162.07 267.933 1165.07 263.877 1170.24 257.208Z"/><path fill="#24231F" transform="matrix(1.21799 0 0 1.21796 0 3.05176e-05)" d="M196.314 752.805C201.342 752.086 207.046 750.723 209.943 755.68C208.9 765.363 197.286 767.534 189.67 768.938C189.943 778.334 190.424 787.897 190.808 797.305C197.392 800.682 218.444 810.173 215.691 819.422C208.947 823.059 194.577 814.576 188.518 811.32C178.969 806.004 169.496 800.554 160.1 794.972C110.189 764.996 171.128 756.673 196.314 752.805Z"/><path fill="#E9B24C" transform="matrix(1.21799 0 0 1.21796 0 3.05176e-05)" d="M173.06 771.433L173.759 771.576C176.987 774.345 177.464 786.258 177.908 790.709L164.839 783.63C161.059 781.328 157.075 778.687 153.319 776.293C159.532 774.533 166.719 772.968 173.06 771.433Z"/><path fill="#24231F" transform="matrix(1.21799 0 0 1.21796 0 3.05176e-05)" d="M1276.7 318.902C1287.56 321.448 1285.93 335.79 1286.59 344.821C1287.26 354.055 1287.45 363.609 1287.92 372.9C1293.9 365.286 1311.3 340.616 1321.23 342.763C1331.05 354.572 1299.79 378.503 1291.67 388.348L1290.65 389.602C1288.09 392.016 1288.23 391.921 1284.97 393.259C1271.28 391.655 1273.11 353.441 1273 342.473C1268.37 348.455 1252.39 371.429 1244.08 368.363C1242.82 366.363 1242.57 364.583 1242.42 362.273C1241.83 353.066 1269.53 326.779 1276.7 318.902Z"/><path fill="#24231F" transform="matrix(1.21799 0 0 1.21796 0 3.05176e-05)" d="M1401.06 453.643C1408.77 453.364 1408.46 461.775 1407.78 467.422C1406.15 480.884 1402.66 494.38 1399.78 507.662C1406.14 502.715 1430.6 482.831 1438.77 487.262C1446.6 501.166 1407.88 517.804 1398.32 524.074C1374.89 537.956 1390.87 482.247 1392.55 474.684C1386.39 479.535 1366.01 497.015 1358.56 491.635C1353.26 478.64 1390.99 460.71 1401.06 453.643Z"/><path fill="#24231F" transform="matrix(1.21799 0 0 1.21796 0 3.05176e-05)" d="M167.095 667.827C173.007 668.686 218.209 680.296 220.317 682.882C221.771 684.665 221.942 685.675 221.377 687.899C218.882 697.721 189.904 712.929 181.153 717.974C190.711 719.395 210.738 721.839 217.138 729.011C218.073 734.705 211.701 736.107 207.2 737.42C145.96 724.364 144.035 720.566 201.581 689.983C192.672 688.63 167.514 684.697 160.582 678.203C158.792 676.526 159.384 675.042 159.699 673.135C161.897 670.041 163.571 669.615 167.095 667.827Z"/><path fill="#24231F" transform="matrix(1.21799 0 0 1.21796 0 3.05176e-05)" d="M1496.36 914.879C1503.11 914.474 1508.61 915.635 1514.44 919.161C1521.95 923.663 1527.32 931.016 1529.31 939.541C1532.7 954.56 1525.08 963.334 1511.21 966.672C1475.65 964.698 1460.62 928.065 1496.36 914.879Z"/><path fill="#E9B24C" transform="matrix(1.21799 0 0 1.21796 0 3.05176e-05)" d="M1489.12 928.018C1501.95 927.897 1526.19 937.056 1516.51 953.52C1502.22 953.538 1479.26 946.429 1489.12 928.018Z"/><path fill="#24231F" transform="matrix(1.21799 0 0 1.21796 0 3.05176e-05)" d="M213.098 968.459C219.927 971.858 220.976 975.43 224.624 981.448C236.251 1000.63 228.31 1006.93 209.057 1012.85C191.452 1018.27 172.422 1017.55 154.666 1023.46C147.177 1007.69 139.975 996.392 145.899 979.145C153.093 981.304 159.143 999.959 161.988 1006.91L193.887 1003.17C189.833 995.861 184.765 985.305 189.044 977.128C197.151 973.634 204.473 994.304 207.182 1000.26L217.207 996.938C210.848 984.759 209.831 981.319 213.098 968.459Z"/><path fill="#24231F" transform="matrix(1.21799 0 0 1.21796 0 3.05176e-05)" d="M1488.18 606.346C1498.03 608.949 1514.75 647.337 1503.98 649.296C1497.17 645.717 1489.03 629.624 1485.06 622.41L1465.64 628.491C1469.91 635.076 1480.47 655.715 1472.09 661.137C1467.8 659.995 1465.63 654.891 1463.7 651.296C1460.08 644.643 1457.05 640.291 1452.67 634.037L1443.71 637.506C1447.44 642.782 1453.4 651.488 1450.48 657.97C1448.84 658.654 1446.32 659.429 1444.65 658.195C1400.84 625.771 1467.83 613.812 1488.18 606.346Z"/><path fill="#24231F" transform="matrix(1.21799 0 0 1.21796 0 3.05176e-05)" d="M210.172 1026.93C213.631 1027.15 215.834 1027.75 218.422 1030.11C221.245 1038.66 211.144 1045.08 204.982 1049.21C226.08 1061.57 243.543 1063.93 211.217 1082.52C219.67 1084.23 238.818 1086.64 241.817 1095.27C241.239 1097.7 241.269 1097.52 239.373 1099.18C235.332 1099.87 232.944 1099.17 228.92 1098.48C220.975 1097.23 183.969 1092.7 185.099 1081.14C189.697 1074.7 203.177 1069.09 210.685 1065.2C181.129 1047.42 181.076 1045.76 210.172 1026.93Z"/><path fill="#24231F" transform="matrix(1.21799 0 0 1.21796 0 3.05176e-05)" d="M1485.64 665.027C1505.37 665.478 1536.91 725.867 1517.34 732.893C1513.4 730.46 1513.21 725.38 1512.09 720.666C1509.22 708.664 1498.03 686.279 1487.34 679.82L1486.26 680.611L1485.98 683.636C1486.24 693.85 1490.34 739.851 1466.25 717.905C1459.94 712.15 1452.29 697.406 1455.94 688.798C1458.14 686.801 1456.89 687.248 1459.75 687.288C1465.17 690.954 1472.05 704.615 1475.55 710.8C1475.39 695.612 1470.98 673.797 1485.64 665.027Z"/><path fill="#24231F" transform="matrix(1.21799 0 0 1.21796 0 3.05176e-05)" d="M620.509 221.977C625.07 214.327 640.702 185.187 652.11 195.553C652.9 202.167 635.043 223.892 629.912 230.761C634.086 230.972 638.432 231.358 642.617 231.664C646.396 231.622 662.677 231.775 657.841 239.614C649.523 243.615 635.61 241.45 626.773 240.365C628.865 244.796 631.308 249.334 631.263 254.159C628.946 258.588 624.312 258.729 620.128 256.689C612.977 248.613 602.411 216.696 600.175 205.627C598.872 199.177 598.028 198.097 601.219 193.192C611.904 194.97 613.801 197.454 616.646 208.528C617.77 212.905 619.181 217.629 620.509 221.977Z"/><path fill="#24231F" transform="matrix(1.21799 0 0 1.21796 0 3.05176e-05)" d="M1532.52 725.202C1540.45 728.608 1556.15 778.401 1547.16 786.094L1545.29 785.281C1540.38 779.017 1538.66 771.609 1536.32 764.041C1521.99 764.127 1503.5 766.637 1489.04 768.351C1481.31 769.115 1457.16 775.797 1454.44 766.324C1454.96 764.536 1455.4 762.979 1456.63 761.539C1463.73 753.25 1518.08 751.304 1531.46 749.786C1526.56 738.439 1525.71 735.496 1532.52 725.202Z"/><path fill="#24231F" transform="matrix(1.21799 0 0 1.21796 0 3.05176e-05)" d="M1502.69 978.245C1524.25 985.774 1527.8 1086.9 1477.02 1003.09C1477.02 1004.86 1476.98 1006.64 1476.91 1008.42C1476.45 1019.4 1475.05 1021.87 1467.43 1028.91C1466.75 1026.99 1465.86 1024.33 1465.76 1022.34C1461.99 948.588 1488.82 998.983 1509.11 1021.46C1509.07 1021.24 1509.04 1021.02 1509.01 1020.79L1508.82 1019.69C1506.83 1007.23 1501.5 995.871 1500.51 983.461C1500.44 982.601 1502.19 979.178 1502.69 978.245Z"/><path fill="#24231F" transform="matrix(1.21799 0 0 1.21796 0 3.05176e-05)" d="M1514.95 845.538C1537.03 857.659 1551.23 928.357 1509.8 892.703C1504.04 887.751 1498.06 881.138 1492.78 875.57C1494.34 884.002 1497.83 897.199 1487.91 901.05L1486.69 900.191C1484.01 891.534 1475.83 863 1484.99 857.201C1494.43 856.278 1517.12 879.388 1528.24 887.338C1523.7 875.454 1517.11 866.147 1513.14 854.405C1511.72 850.193 1513.07 848.994 1514.95 845.538Z"/><path fill="#24231F" transform="matrix(1.21799 0 0 1.21796 0 3.05176e-05)" d="M514.418 237.654C521.514 239.677 524.778 245.768 526.778 252.695C530.885 266.915 532.837 285.059 525.694 298.626C521.084 307.381 514.837 309.392 506.101 311.869C491.627 304.705 488.248 297.092 481.964 283.026C480.861 278.963 475.584 261.514 487.658 265.353C496.78 268.252 499.812 297.306 509.03 300.724C524.479 295.632 510.316 256.216 508.54 244.974L508.343 243.684C510.043 241.796 512.561 239.474 514.418 237.654Z"/><path fill="#24231F" transform="matrix(1.21799 0 0 1.21796 0 3.05176e-05)" d="M139.383 822.819C142.915 824.1 145.939 827.936 148.18 831.036C153.263 838.068 186.738 871.653 193.765 854.806C192.786 843.465 178.819 835.707 180.77 826.211C187.965 820.451 193.047 828.636 197.018 834.042C232.201 887.886 146.875 879.106 135.212 833.996C136.564 828.753 136.909 827.739 139.383 822.819Z"/><path fill="#24231F" transform="matrix(1.21799 0 0 1.21796 0 3.05176e-05)" d="M567.861 206.863C572.12 206.603 573.912 206.394 577.015 209.14C577.305 211.876 570.134 224.64 568.426 229.13C566.059 235.536 564.45 242.197 563.633 248.978C562.914 254.837 561.89 269.434 569.685 270.113C579.603 265.427 583.835 247.589 592.807 245.93L594.429 247.299C596.662 253.025 595.81 254.401 593.612 260.328C556.892 321.678 526.99 236.768 567.861 206.863Z"/><path fill="#24231F" transform="matrix(1.21799 0 0 1.21796 0 3.05176e-05)" d="M265.028 485.125C283.744 487.777 291.966 499.295 291.509 517.418C286.531 526.876 284.052 528.189 274.476 531.903C247.101 530.299 234.63 496.963 265.028 485.125Z"/><path fill="#E9B24C" transform="matrix(1.21799 0 0 1.21796 0 3.05176e-05)" d="M263.76 495.889C276.538 501.992 276.973 509.745 274.635 522.312C261.484 518.419 260.939 507.193 263.76 495.889Z"/><path fill="#24231F" transform="matrix(1.21799 0 0 1.21796 0 3.05176e-05)" d="M1481.48 1044.74C1491.11 1045.96 1500.25 1051.52 1507.16 1058.15C1504.67 1067.16 1497.14 1101.49 1485.83 1101.1L1484.59 1099.25C1483.31 1089.08 1489.39 1074.14 1492.85 1064.3L1483.68 1060.06L1478.51 1075.46C1460.78 1115.38 1436.86 1059.75 1449.66 1049.58C1457.23 1050.07 1457.64 1070.55 1464.97 1076.4C1474.76 1076.51 1469.93 1054.31 1481.48 1044.74Z"/><path fill="#24231F" transform="matrix(1.21799 0 0 1.21796 0 3.05176e-05)" d="M234.871 534.027C260.574 533.749 279.171 564.408 250.63 579.554C241.516 579.928 230.908 577.233 225.414 569.676C214.429 554.563 222.475 542.907 234.871 534.027Z"/><path fill="#E9B24C" transform="matrix(1.21799 0 0 1.21796 0 3.05176e-05)" d="M235.646 544.956C247.884 548.524 250.893 558.037 248.505 569.569L247.167 569.931C235.197 566.999 234.766 555.289 235.646 544.956Z"/><path fill="#24231F" transform="matrix(1.21799 0 0 1.21796 0 3.05176e-05)" d="M1225.24 289.842C1255.96 290.905 1256.85 323.697 1226.64 333.52C1194.56 334.002 1194.46 302.586 1225.24 289.842Z"/><path fill="#E9B24C" transform="matrix(1.21799 0 0 1.21796 0 3.05176e-05)" d="M1224.65 305.048C1229.39 304.679 1235.06 303.325 1236.1 309.157C1233.94 314.653 1230.98 315.603 1225.81 318.456C1220.84 318.565 1214.89 319.508 1214.04 313.388C1216.32 308.118 1219.46 307.301 1224.65 305.048Z"/><path fill="#24231F" transform="matrix(1.21799 0 0 1.21796 0 3.05176e-05)" d="M1451.59 512.279C1461.58 515.554 1448.06 537.358 1444.92 543.791C1451.09 543.997 1483.22 544.198 1479.45 555.755C1468.17 565.118 1444.48 554.789 1429.49 562.459C1422.72 566.576 1407.47 577.805 1400.4 573.027C1395.65 562.367 1409.58 556.92 1416.96 552.94C1422.84 549.766 1428.95 546.768 1434.91 543.731C1440.32 531.792 1444.1 523.181 1451.59 512.279Z"/><path fill="#24231F" transform="matrix(1.21799 0 0 1.21796 0 3.05176e-05)" d="M208.687 571.994C210.683 572.377 210.532 572.382 211.934 573.884C213.522 580.085 208.579 594.561 206.883 601.839C213.8 606.146 218.644 608.603 226.017 612.186C227.389 604.977 230.199 591.502 237.52 588.332C244.741 590.715 238.473 610.702 237.103 616.434L246.423 620.85C250.187 623.236 251.295 623.95 251.167 628.551C242.973 641.722 202.455 616.092 192.767 610.366C193.099 607.244 193.486 604.128 193.927 601.02C195.88 587.54 197.508 580.33 208.687 571.994Z"/><path fill="#24231F" transform="matrix(1.21799 0 0 1.21796 0 3.05176e-05)" d="M839.772 171.623C851.309 169.151 862.649 176.562 865.016 188.123C867.383 199.684 859.87 210.956 848.289 213.219C836.857 215.452 825.76 208.055 823.423 196.642C821.086 185.229 828.382 174.064 839.772 171.623Z"/><path fill="#24231F" transform="matrix(1.21799 0 0 1.21796 0 3.05176e-05)" d="M1327.14 379.174C1336.08 382.496 1335.4 391.367 1335.59 399.334C1343.68 399.408 1365.6 400.146 1365.74 411.409C1361.17 419.349 1343.36 414.397 1335.97 412.882C1335.69 416.599 1335.71 420.854 1335.63 424.625C1335.64 427.408 1335.73 429.79 1333.98 431.858C1327.33 432.116 1326.61 416.907 1326.51 411.992C1319.7 412.059 1308.63 413.052 1305.58 405.387C1307.07 396.639 1318.87 397.62 1325.66 397.613C1325.51 389.946 1325.68 386.578 1327.14 379.174Z"/><path fill="#24231F" transform="matrix(1.21799 0 0 1.21796 0 3.05176e-05)" d="M157.182 916.19C162.249 918.124 173.233 930.179 177.545 934.579C180.358 929.956 183.702 922.307 189.958 923.618L191.168 925.784C191.444 932.607 188.825 935.285 185.069 941.042C192.238 946.011 204.104 952.108 197.503 961.38C187.774 961.166 185.011 958.654 177.328 953.02C174.634 957.529 171.931 963.427 166.102 963.082L164.766 961.156C163.989 954.767 166.513 951.663 169.688 946.089C157.979 936.85 145.384 931.075 157.182 916.19Z"/><path fill="#24231F" transform="matrix(1.21799 0 0 1.21796 0 3.05176e-05)" d="M177.785 887.498C184.688 887.231 191.305 886.835 196.483 891.143C197.86 894.306 197.725 892.709 196.805 896.11C191.357 902.444 184.638 902.334 176.6 903.186C169.384 904.036 155.386 906.111 152.911 897.175C155.903 887.606 169.817 887.939 177.785 887.498Z"/><path fill="#24231F" transform="matrix(1.21799 0 0 1.21796 0 3.05176e-05)" d="M1473.18 790.691C1487.93 790.58 1487.39 800.436 1480.64 810.215C1467.01 807.863 1462.82 801.516 1473.18 790.691Z"/><path fill="#5E8441" transform="matrix(1.21799 0 0 1.21796 0 3.05176e-05)" d="M661.839 900.042C655.894 828.96 648.347 680.236 687.634 619.386C700.283 599.795 720.807 582.109 744.083 577.254C788.084 568.077 907.044 611.411 949.226 630.558C969.56 639.602 989.107 650.322 1007.67 662.606C1026.1 671.231 1041.36 686.372 1048.39 705.651C1070.05 765.144 1022.99 932.844 1010.3 999.51C1005.92 1022.54 1002.95 1070.03 994.476 1088.3C991.263 1095.23 986.174 1101.22 982.475 1107.88C974.525 1122.2 973.674 1141.68 978.829 1157.08C982.446 1167.88 989.583 1176.68 996.527 1185.5C998.361 1201.02 999.544 1218.61 1000.41 1234.27C980.392 1256.81 966.583 1275.14 950.021 1300.71C948.048 1291.29 946.245 1283.21 943.396 1273.99C942.448 1270.93 939.164 1261.93 938.699 1259.64C930.509 1247.85 922.153 1235.04 913.486 1223.6C887.786 1189.67 844.277 1214.47 839.012 1249.26C835.274 1273.97 842.692 1300.11 841.706 1325.86C835.988 1324.38 826.138 1313.34 821.745 1308.73C817.272 1287.51 815.6 1263.86 809.649 1243.22C803.23 1220.95 766.012 1215.41 745.912 1206.08C697.04 1125.86 679.191 1032.99 665.673 941.698C693.462 943.74 716.964 937.227 742.965 929.031C744.765 940.964 750.883 959.892 755.086 971.279C762.835 992.275 771.053 1015.02 792.904 1024.76C809.939 1032.35 831.242 1031.55 848.37 1024.97C879.074 1013.17 899.139 984.745 912.1 955.88C945.056 955.971 980.553 937.649 986.994 902.647C990.84 881.747 977.393 861.971 956.136 859.282C953.289 858.922 947.899 858.388 945.649 860.134C980.643 865.04 970.211 923.091 930.371 916.557C892.71 910.38 892.777 882.871 872.726 856.605C887.577 850.125 906.017 846.105 922.144 845.171C930.548 844.684 949.449 851.495 956.254 848.164L956.367 846.544C950.251 839.374 938.881 837.991 929.743 836.057C940.327 806.716 947.029 789.608 939.545 757.094C935.662 740.223 927.177 723.779 911.92 714.457C901.552 708.021 888.979 706.17 877.196 709.345C861.802 713.448 849.298 725.182 841.376 738.649C824.708 766.987 826.372 801.129 834.348 831.827C816.064 831.276 810.759 832.345 796.349 843.677C787.277 833.201 781.26 831.342 768.409 827.755C783.232 797.606 791.863 767.26 785.956 733.742C778.114 689.239 728.442 680.834 705.007 718.402C685.797 749.2 680.058 790.761 695.289 824.294C700.239 835.192 707.941 841.999 717.712 848.33C692.756 874.174 698.858 887.354 661.839 900.042Z"/><path fill="#436633" transform="matrix(1.21799 0 0 1.21796 0 3.05176e-05)" d="M1007.67 662.606C1026.1 671.231 1041.36 686.372 1048.39 705.651C1070.05 765.144 1022.99 932.844 1010.3 999.51C1005.92 1022.54 1002.95 1070.03 994.476 1088.3C991.263 1095.23 986.174 1101.22 982.475 1107.88C974.525 1122.2 973.674 1141.68 978.829 1157.08C982.446 1167.88 989.583 1176.68 996.527 1185.5C998.361 1201.02 999.544 1218.61 1000.41 1234.27C980.392 1256.81 966.583 1275.14 950.021 1300.71C948.048 1291.29 946.245 1283.21 943.396 1273.99C942.448 1270.93 939.164 1261.93 938.699 1259.64C945.2 1265.44 948.767 1287.95 950.335 1296.23C957.096 1288.15 965.355 1275.03 971.272 1266.1C971.231 1248.43 971.271 1232.19 968.786 1214.61C950.834 1195.89 945.154 1179.42 946.793 1153.22C948.294 1129.23 966.452 1118.25 971.041 1096.17C973.581 1083.95 974.803 1070.94 976.637 1058.49C979.736 1038.28 983.242 1018.14 987.152 998.07C1002.42 919.807 1024.07 843.139 1030.34 763.298C1033.88 718.206 1034.08 699.733 1007.67 662.606Z"/><path fill="#24231F" transform="matrix(1.21799 0 0 1.21796 0 3.05176e-05)" d="M890.217 644.802C933.456 641.649 946.959 680.06 950.781 715.443C944.324 707.574 939.44 702.696 932.23 695.672C915.915 682.45 900.358 672.752 878.563 675.729C871.064 676.753 862.365 681.832 857.228 674.287C856.631 669.425 858.326 667.012 860.971 662.886C868.441 651.229 877.193 647.358 890.217 644.802Z"/><path fill="#24231F" transform="matrix(1.21799 0 0 1.21796 0 3.05176e-05)" d="M743.632 626.158C752.419 625.671 762.31 628.009 769.714 632.75C777.687 637.757 783.124 645.95 784.64 655.243C785.498 660.208 784.065 668.751 778.29 666.606C759.336 659.564 753.386 657.22 732.93 660.144C718.12 665.866 713.425 670.111 700.361 679.711C702.22 650.968 714.351 631.794 743.632 626.158Z"/><path fill="#24231F" transform="matrix(1.21799 0 0 1.21796 0 3.05176e-05)" d="M755.87 1017.91C762.533 1020.95 764.672 1027.31 769.67 1031.47C789.074 1047.61 816.152 1054.07 840.351 1045.93C846.85 1043.75 854.719 1037.71 861.46 1037.22L862.474 1038.4C861.938 1041.59 859.808 1043.67 857.756 1046.23C847.209 1057.19 834.073 1064.57 818.788 1066.12C802.696 1067.63 786.666 1062.64 774.273 1052.27C764.125 1043.75 756.964 1031.2 755.87 1017.91Z"/><path fill="#61211F" transform="matrix(1.21799 0 0 1.21796 0 3.05176e-05)" d="M1331.95 812.204L1331.96 1023.71C1331.95 1038.93 1330.83 1102.83 1333.29 1113.85C1317.25 1144.71 1292.37 1184.24 1269.42 1210.56L1269.52 853.417C1295.25 841.745 1310.86 829.905 1331.95 812.204Z"/><path fill="#783130" transform="matrix(1.21799 0 0 1.21796 0 3.05176e-05)" d="M1331.95 812.204C1365.12 777.51 1375.16 757.646 1375.83 709.897C1380.04 724.582 1385.2 743.545 1386.41 758.649C1384.88 766.413 1384.35 948.251 1386.38 956.977C1383.05 999.536 1353.16 1076.25 1333.29 1113.85C1330.83 1102.83 1331.95 1038.93 1331.96 1023.71L1331.95 812.204Z"/><path fill="#61211F" transform="matrix(1.21799 0 0 1.21796 0 3.05176e-05)" d="M339.672 960.697C346.18 961.574 354.039 962.843 360.483 963.257C369.249 996.747 374.854 1007.71 403.004 1029.21C401.651 1046.85 401.962 1066.78 401.844 1084.67L402.039 1200.16C379.592 1173.47 353.256 1129.95 338.419 1098.41C340.724 1093.94 339.671 973.417 339.672 960.697Z"/><path fill="#783130" transform="matrix(1.21799 0 0 1.21796 0 3.05176e-05)" d="M1100.04 944.953C1100.2 925.145 1099.16 899.33 1100.33 880.075C1102.1 878.586 1105.61 879.04 1108.46 878.953C1123.29 879.161 1138.13 879.175 1152.97 878.995C1152.8 914.4 1152.88 949.805 1153.23 985.209C1133.67 967.483 1121.76 959.788 1100.04 944.953Z"/><path fill="#783130" transform="matrix(1.21799 0 0 1.21796 0 3.05176e-05)" d="M291.695 953.806C306.854 956.749 324.216 958.673 339.672 960.697C339.671 973.417 340.724 1093.94 338.419 1098.41C314.93 1053.37 301.972 1003.18 291.695 953.806Z"/><path fill="#61211F" transform="matrix(1.21799 0 0 1.21796 0 3.05176e-05)" d="M1063.82 876.887C1073.67 876.13 1098.73 877.144 1108.46 878.953C1105.61 879.04 1102.1 878.586 1100.33 880.075C1099.16 899.33 1100.2 925.145 1100.04 944.953C1086.84 937.582 1066.16 928.347 1055.17 921.212C1055.76 904.915 1058.88 892.368 1063.82 876.887Z"/><path fill="#61211F" transform="matrix(1.21799 0 0 1.21796 0 3.05176e-05)" d="M1386.41 758.649C1397.04 808.546 1397.96 864.728 1392.85 915.293C1391.64 927.197 1389.69 945.725 1386.38 956.977C1384.35 948.251 1384.88 766.413 1386.41 758.649Z"/><path fill="#C2492C" transform="matrix(1.21799 0 0 1.21796 0 3.05176e-05)" d="M399.26 402.756C441.276 360.281 535.006 351.678 592.104 351.323C626.794 350.991 661.473 352.747 695.952 356.581C711.168 358.411 727.319 361.355 742.535 363.744C881.934 385.009 1016.2 431.86 1138.57 501.936C1204.74 539.792 1329.39 622.548 1346.51 702.592C1347.85 708.034 1348.38 713.407 1349.06 718.966C1348.98 726.812 1348.73 730.277 1347.4 738.015C1337.81 779.799 1311.65 799.435 1276.83 821.506C1278.99 794.447 1274.35 783.269 1261.14 759.849L1248.85 742.12C1245.93 739.153 1242.74 735.48 1239.98 732.335C1221.44 711.168 1200.69 693.262 1179.16 675.213C1169.09 668.317 1159.28 661.06 1149.73 653.455C1145.22 651.053 1140.79 647.94 1136.54 645.065C1111.13 627.874 1084.4 612.877 1058.02 597.204C1045.75 591.925 1033.37 585.138 1021.49 578.891C989.205 565.315 958.857 550.872 925.999 537.825C919.599 535.028 906.044 530.723 898.674 527.928C886.501 525.169 874.523 520.466 862.641 517.191C839.828 510.904 814.875 503.019 791.888 498.185L758.66 490.688L659.656 476.087C648.764 476.207 636.629 475.243 625.775 474.32L580.879 475.067C564.735 475.22 552.476 474.689 536.438 477.251C526.652 479.015 517.495 480.664 507.622 481.926C484.247 487.835 456.861 494.994 436.538 508.237L428.84 513.987C418.005 522.999 412.052 530.92 404.252 542.487C392.685 514.95 387.841 501.198 383.011 471.136C381.045 462.49 381.474 455.897 381.587 447.167C381.654 432.298 388.867 413.654 399.26 402.756Z"/><path fill="#FDFCFA" transform="matrix(1.21799 0 0 1.21796 0 3.05176e-05)" d="M522.692 463.482C536.393 442.267 548.163 419.672 561.214 398.014C567.56 387.482 573.625 375.92 581.114 366.196C593.433 384.635 605.612 403.165 617.652 421.787C624.954 433.031 634.726 448.83 642.851 459.333C663.637 440.395 680.857 420.704 700.53 400.782C707.288 393.938 718.476 381.985 726.027 377.097C731.335 384.737 737.748 398.148 742.076 406.741L765.538 453.402C769.068 460.409 774.286 471.238 778.551 477.438C790.067 471.305 799.378 463.211 809.673 455.419C829.684 440.273 850.089 421.834 870.784 407.89C881.819 429.199 890.435 453.163 900.156 475.139C905.093 486.301 911.464 502.682 918.296 512.531C944.401 501.098 982.418 471.611 1009.36 456.355C1018.52 480.789 1024.42 509.151 1031.96 534.386C1035.63 546.66 1039.79 563.906 1045.63 575.09C1057.79 571.669 1073.08 564.007 1084.64 558.608C1106.56 548.369 1128.18 536.938 1150.39 527.315C1156.49 553.874 1159.3 584.298 1164.14 611.408C1166.19 622.917 1168.35 640.759 1172.13 651.568C1201.13 647.078 1244.16 627.597 1275.81 621.573C1274.66 643.858 1273.33 666.134 1271.82 688.397C1271.03 701.791 1269.65 722.898 1271.23 735.783C1296.78 731.509 1323.71 724.87 1349.06 718.966C1348.98 726.812 1348.73 730.277 1347.4 738.015C1337.81 779.799 1311.65 799.435 1276.83 821.506C1278.99 794.447 1274.35 783.269 1261.14 759.849L1248.85 742.12C1245.93 739.153 1242.74 735.48 1239.98 732.335C1221.44 711.168 1200.69 693.262 1179.16 675.213C1169.09 668.317 1159.28 661.06 1149.73 653.455C1145.22 651.053 1140.79 647.94 1136.54 645.065C1111.13 627.874 1084.4 612.877 1058.02 597.204C1045.75 591.925 1033.37 585.138 1021.49 578.891C989.205 565.315 958.857 550.872 925.999 537.825C919.599 535.028 906.044 530.723 898.674 527.928C886.501 525.169 874.523 520.466 862.641 517.191C839.828 510.904 814.875 503.019 791.888 498.185L758.66 490.688L659.656 476.087C648.764 476.207 636.629 475.243 625.775 474.32L580.879 475.067C564.735 475.22 552.476 474.689 536.438 477.251C526.652 479.015 517.495 480.664 507.622 481.926C484.247 487.835 456.861 494.994 436.538 508.237L428.84 513.987C418.005 522.999 412.052 530.92 404.252 542.487C392.685 514.95 387.841 501.198 383.011 471.136C381.045 462.49 381.474 455.897 381.587 447.167C396.478 457.974 410.233 474.568 425.173 486.823C434.7 454.538 443.938 422.168 452.886 389.717C477.682 413.115 498.816 440.685 522.692 463.482Z"/><path fill="#8AB960" transform="matrix(1.21799 0 0 1.21796 0 3.05176e-05)" d="M791.888 498.185C797.819 495.616 813.198 483.353 818.876 478.972L861.887 445.831C869.598 462.868 877.125 479.988 884.466 497.187C887.769 504.855 894.467 521.416 898.674 527.928C886.501 525.169 874.523 520.466 862.641 517.191C839.828 510.904 814.875 503.019 791.888 498.185Z"/><path fill="#8AB960" transform="matrix(1.21799 0 0 1.21796 0 3.05176e-05)" d="M1058.02 597.204C1081.93 585.986 1108.16 573.739 1132.51 563.718C1140 594.82 1143.51 622.853 1149.73 653.455C1145.22 651.053 1140.79 647.94 1136.54 645.065C1111.13 627.874 1084.4 612.877 1058.02 597.204Z"/><path fill="#8AB960" transform="matrix(1.21799 0 0 1.21796 0 3.05176e-05)" d="M925.999 537.825C939.599 529.663 953.029 521.22 966.28 512.501C970.579 509.701 975.989 506.343 980.123 503.379C1001.52 488.04 999.545 504.31 1004.69 520.207C1010.56 538.331 1014.23 561.231 1021.49 578.891C989.205 565.315 958.857 550.872 925.999 537.825Z"/><path fill="#8AB960" transform="matrix(1.21799 0 0 1.21796 0 3.05176e-05)" d="M1347.4 738.015C1337.81 779.799 1311.65 799.435 1276.83 821.506C1278.99 794.447 1274.35 783.269 1261.14 759.849C1281.82 753.924 1302.86 748.746 1323.63 743.08C1331.17 741.024 1339.67 738.634 1347.4 738.015Z"/><path fill="#8AB960" transform="matrix(1.21799 0 0 1.21796 0 3.05176e-05)" d="M720.02 415.559C733.52 440.278 746.404 465.329 758.66 490.688L659.656 476.087C674.053 459.713 703.531 431.024 720.02 415.559Z"/><path fill="#8AB960" transform="matrix(1.21799 0 0 1.21796 0 3.05176e-05)" d="M1179.16 675.213C1204.29 667.285 1228.83 659.352 1254.37 652.821C1252.75 681.185 1248.83 714.687 1248.85 742.12C1245.93 739.153 1242.74 735.48 1239.98 732.335C1221.44 711.168 1200.69 693.262 1179.16 675.213Z"/><path fill="#8AB960" transform="matrix(1.21799 0 0 1.21796 0 3.05176e-05)" d="M580.366 406.255C594.981 424.234 613.985 454.475 625.775 474.32L580.879 475.067C564.735 475.22 552.476 474.689 536.438 477.251C549.754 459.285 568.421 426.283 580.366 406.255Z"/><path fill="#8AB960" transform="matrix(1.21799 0 0 1.21796 0 3.05176e-05)" d="M460.92 428.711C474.038 440.721 497.939 467.255 507.622 481.926C484.247 487.835 456.861 494.994 436.538 508.237C442.766 483.856 453.357 453.448 460.92 428.711Z"/><path fill="#8AB960" transform="matrix(1.21799 0 0 1.21796 0 3.05176e-05)" d="M383.011 471.136C398.759 484.906 414.044 499.197 428.84 513.987C418.005 522.999 412.052 530.92 404.252 542.487C392.685 514.95 387.841 501.198 383.011 471.136Z"/><path fill="#E9B24C" transform="matrix(1.21799 0 0 1.21796 0 3.05176e-05)" d="M399.26 402.756C441.276 360.281 535.006 351.678 592.104 351.323C626.794 350.991 661.473 352.747 695.952 356.581C711.168 358.411 727.319 361.355 742.535 363.744C881.934 385.009 1016.2 431.86 1138.57 501.936C1204.74 539.792 1329.39 622.548 1346.51 702.592C1343.72 701.893 1340.64 696.395 1339.19 693.876C1314.36 650.775 1275.25 612.014 1235.62 582.586C1083.27 469.456 899.585 398.665 711.879 373.493C622.377 361.599 529.694 358.224 442.649 386.048C430.377 389.971 410.87 401.982 399.26 402.756Z"/><path fill="#BE8743" transform="matrix(1.21799 0 0 1.21796 0 3.05176e-05)" d="M574.765 497.884C591.157 494.981 653.989 499.217 672.183 501.314C830.38 519.296 982.306 573.497 1116.16 659.711C1156.81 686.336 1244.06 751.088 1253.43 801.481C1255.17 810.902 1252.94 820.62 1247.27 828.343C1234.98 845.338 1206.68 850.055 1187.58 853.552C1169.86 856.798 1080.08 859.528 1069.61 851.685C1067.56 847.501 1068.83 843.675 1069.68 839.356C1076.5 804.872 1079.33 771.12 1079.58 735.981C1086.25 743.144 1089.99 748.103 1095.39 756.188C1100.79 744.318 1103.79 733.986 1100.72 720.889C1092.24 684.63 1050.19 655.495 1020.44 636.694C934.444 584.148 835.549 554.718 735.638 544.128C697.821 540.12 654.116 536.374 617.808 549.343C605.13 553.872 596.673 561.575 588.27 571.785C615.574 563.577 631.649 561.158 660.164 563.651C639.073 583.777 625.812 598.226 641.486 627.672C653.617 605.489 665.206 595.391 687.682 584.585C657.11 614.754 647.478 647.53 641.231 688.819C639.292 701.635 638.904 714.987 634.474 727.206C591.627 718.869 521.487 672.469 485.967 646.317C461.924 628.615 402.79 576.459 431.237 544.571C465.913 505.7 526.186 502.606 574.765 497.884Z"/><path fill="#E9B24C" transform="matrix(1.21799 0 0 1.21796 0 3.05176e-05)" d="M317.505 795.815C337.144 777.707 366.547 765.434 392.902 766.644C457.939 769.631 499.033 831.47 515.625 888.298C522.198 910.807 531.307 937.22 549.363 952.718C553.074 955.84 562.162 957.986 567.005 959.005C558.4 964.83 539.442 957.347 531.327 952.255C519.817 951.7 507.423 949.897 495.713 948.98C487.882 948.367 481.638 949.045 474.706 948.585C467.67 918.575 455.374 915.343 426.804 916.85C401.39 897.227 377.976 899.188 363.214 929.867C362.64 934.008 361.482 939.489 360.714 943.702C338.99 941.133 304.265 938.685 284.386 929.108C282.571 928.234 279.529 924.733 278.086 923.079C272.474 913.862 269.848 901.389 270.438 890.724C272.785 848.322 288.477 823.944 317.505 795.815Z"/><path fill="#FDFCFA" transform="matrix(1.21799 0 0 1.21796 0 3.05176e-05)" d="M317.505 795.815C337.144 777.707 366.547 765.434 392.902 766.644C457.939 769.631 499.033 831.47 515.625 888.298C522.198 910.807 531.307 937.22 549.363 952.718C553.074 955.84 562.162 957.986 567.005 959.005C558.4 964.83 539.442 957.347 531.327 952.255C512.269 921.069 509.394 898.687 494.765 866.13C466.809 803.915 419.781 761.671 348.937 785.106C342.302 787.301 321.721 797.423 317.505 795.815Z"/><path fill="#BE8743" transform="matrix(1.21799 0 0 1.21796 0 3.05176e-05)" d="M278.086 923.079C287.498 918.262 349.382 927.705 363.214 929.867C362.64 934.008 361.482 939.489 360.714 943.702C338.99 941.133 304.265 938.685 284.386 929.108C282.571 928.234 279.529 924.733 278.086 923.079Z"/><path fill="#C2492C" transform="matrix(1.21799 0 0 1.21796 0 3.05176e-05)" d="M340.51 892.919C343.157 891.778 346.214 892.167 348.49 893.934C350.767 895.7 351.903 898.565 351.457 901.412C351.01 904.258 349.051 906.637 346.343 907.622C342.321 909.084 337.865 907.082 336.286 903.103C334.708 899.125 336.58 894.612 340.51 892.919Z"/><path fill="#C2492C" transform="matrix(1.21799 0 0 1.21796 0 3.05176e-05)" d="M413.897 813.607C417.795 812.567 421.824 814.766 423.059 818.607C424.294 822.448 422.301 826.583 418.528 828.01C415.912 828.999 412.963 828.466 410.859 826.623C408.755 824.78 407.838 821.927 408.474 819.203C409.109 816.479 411.195 814.327 413.897 813.607Z"/><path fill="#C2492C" transform="matrix(1.21799 0 0 1.21796 0 3.05176e-05)" d="M321.627 835.914C325.253 835.174 328.818 837.425 329.709 841.018C330.6 844.611 328.499 848.267 324.947 849.307C322.514 850.018 319.886 849.34 318.102 847.538C316.318 845.736 315.665 843.102 316.401 840.676C317.137 838.25 319.143 836.422 321.627 835.914Z"/><path fill="#C2492C" transform="matrix(1.21799 0 0 1.21796 0 3.05176e-05)" d="M455.728 852.83C459.158 851.981 462.65 853.973 463.665 857.358C464.68 860.742 462.86 864.327 459.529 865.506C457.226 866.32 454.661 865.801 452.856 864.154C451.051 862.507 450.299 860 450.9 857.632C451.501 855.263 453.356 853.418 455.728 852.83Z"/><path fill="#C2492C" transform="matrix(1.21799 0 0 1.21796 0 3.05176e-05)" d="M301.176 875.101C304.726 874.482 308.111 876.838 308.765 880.381C309.419 883.925 307.097 887.334 303.561 888.023C299.974 888.722 296.507 886.36 295.843 882.766C295.18 879.172 297.576 875.728 301.176 875.101Z"/><path fill="#C2492C" transform="matrix(1.21799 0 0 1.21796 0 3.05176e-05)" d="M476.31 901.146C480.962 901.421 482.237 901.661 484.619 905.837C485.037 909.856 484.47 910.49 482.866 914.393C472.98 913.717 473.209 908.971 476.31 901.146Z"/><path fill="#C2492C" transform="matrix(1.21799 0 0 1.21796 0 3.05176e-05)" d="M368.374 855.359C377.506 857.746 376.424 863.756 372.131 870.224C362.939 867.61 364.274 861.901 368.374 855.359Z"/><path fill="#C2492C" transform="matrix(1.21799 0 0 1.21796 0 3.05176e-05)" d="M367.729 810.031C370.636 809.172 373.701 810.765 374.669 813.637C375.637 816.51 374.161 819.633 371.327 820.709C369.397 821.441 367.22 821.06 365.654 819.715C364.088 818.369 363.382 816.275 363.815 814.256C364.247 812.237 365.749 810.616 367.729 810.031Z"/><path fill="#C2492C" transform="matrix(1.21799 0 0 1.21796 0 3.05176e-05)" d="M418.012 879.557C420.433 878.493 423.264 879.505 424.46 881.864C425.657 884.222 424.802 887.105 422.514 888.43C420.917 889.355 418.939 889.321 417.375 888.342C415.81 887.362 414.915 885.599 415.049 883.758C415.183 881.917 416.323 880.3 418.012 879.557Z"/><path fill="#E9B24C" transform="matrix(1.21799 0 0 1.21796 0 3.05176e-05)" d="M889.793 266.669C922.083 242.962 959.118 247.924 982.472 280.868C998.868 303.996 1005.82 328.023 1013.38 354.73L1017.52 372.412L1019.51 380.98C1020.33 386.151 1021.24 391.307 1022.23 396.446C1023.27 402.499 1024.01 409.056 1024.8 415.186C1015.63 412.362 1006.21 409.051 997.349 405.33C937.862 380.341 876.806 364.526 814.367 348.916C833.897 316.837 859.521 288.895 889.793 266.669Z"/><path fill="#FDFCFA" transform="matrix(1.21799 0 0 1.21796 0 3.05176e-05)" d="M889.793 266.669C922.083 242.962 959.118 247.924 982.472 280.868C998.868 303.996 1005.82 328.023 1013.38 354.73C1007.9 352.245 1001.78 348.573 996.456 345.558C984.967 305.918 965.555 255.702 913.42 262.672C905.593 263.718 897.723 266.944 889.793 266.669Z"/><path fill="#BE8743" transform="matrix(1.21799 0 0 1.21796 0 3.05176e-05)" d="M1003.62 364.854C1008.15 367.463 1012.77 370.297 1017.52 372.412L1019.51 380.98C1020.33 386.151 1021.24 391.307 1022.23 396.446C1013.17 396.665 977.623 377.103 976.705 368.808C982.914 364.017 998.652 371.433 1004.85 374.499C1003.66 370.202 1003.64 369.336 1003.62 364.854Z"/><path fill="#FDFCFA" transform="matrix(1.21799 0 0 1.21796 0 3.05176e-05)" d="M1003.62 364.854C1008.15 367.463 1012.77 370.297 1017.52 372.412L1019.51 380.98L1018.45 381.962C1015.15 381.488 1008.16 376.589 1004.85 374.499C1003.66 370.202 1003.64 369.336 1003.62 364.854Z"/><path fill="#BE8743" transform="matrix(1.21799 0 0 1.21796 0 3.05176e-05)" d="M1003.62 364.854C998.364 362.326 977.532 352.175 980.054 345.027C984.981 342.193 990.849 344.328 996.456 345.558C1001.78 348.573 1007.9 352.245 1013.38 354.73L1017.52 372.412C1012.77 370.297 1008.15 367.463 1003.62 364.854Z"/><path fill="#BE8743" transform="matrix(1.21799 0 0 1.21796 0 3.05176e-05)" d="M967.372 329.103C970.716 329.147 973.09 328.727 975.128 331.626C973.644 334.637 973.486 333.937 969.839 335.925C966.139 335.651 963.388 336.012 961.631 332.455C963.788 329.773 963.586 330.499 967.372 329.103Z"/><path fill="#61211F" transform="matrix(1.21799 0 0 1.21796 0 3.05176e-05)" d="M338.228 616.726C344.083 602.941 369.28 557.752 378.941 546.957C386.768 562.258 394.011 574.684 403.163 589.211C421.501 613.699 433.262 627.922 455.778 649.133C455.626 669.677 456.151 692.561 455.51 712.794C437.36 705.384 431.559 707.629 414.735 716.703C410.608 715.204 406.722 713.598 402.411 712.811C388.572 714.258 385.811 717.39 376.899 728.283C361.635 725.961 354.087 725.068 340.327 733.54C330.638 743.054 328.926 747.822 324.675 760.388C296.943 773.641 301.703 772.816 286.535 799.026C293.103 735.729 310.593 674.049 338.228 616.726Z"/><path fill="#783130" transform="matrix(1.21799 0 0 1.21796 0 3.05176e-05)" d="M402.411 712.811C400.73 703.574 401.722 592.887 403.163 589.211C421.501 613.699 433.262 627.922 455.778 649.133C455.626 669.677 456.151 692.561 455.51 712.794C437.36 705.384 431.559 707.629 414.735 716.703C410.608 715.204 406.722 713.598 402.411 712.811Z"/><path fill="#783130" transform="matrix(1.21799 0 0 1.21796 0 3.05176e-05)" d="M338.228 616.726C340.818 625.124 339.519 640.935 339.905 650.226C340.961 675.606 338.036 708.81 340.327 733.54C330.638 743.054 328.926 747.822 324.675 760.388C296.943 773.641 301.703 772.816 286.535 799.026C293.103 735.729 310.593 674.049 338.228 616.726Z"/><path fill="#FDFCFA" transform="matrix(1.21799 0 0 1.21796 0 3.05176e-05)" d="M1073.07 1074.18C1090.16 1076.08 1102.05 1090.58 1108.42 1105.48C1110.92 1111.33 1115.18 1124.76 1107.01 1127.96C1103.52 1129.32 1099.13 1126.3 1096.06 1124.61C1093.79 1154.79 1089.12 1166.07 1064.96 1184.14C1089.48 1184.33 1092.01 1182.08 1108.32 1164.55C1109.12 1166.42 1109.82 1168.35 1110.4 1170.31C1116.58 1191.14 1100.13 1202.36 1082.51 1207.08C1056.55 1209.71 1044.37 1206 1039.06 1179.12C1035.97 1182.77 1030.92 1189.45 1026.72 1190.99C1015.14 1189.55 1013.87 1158.25 1013.58 1149.24L1004.35 1156.73L1003.92 1155.78C989.646 1124.03 1011.97 1094.22 1043.5 1086.23C1053.18 1083.78 1060.81 1087.64 1069.72 1091.17L1069.52 1088.18C1068.97 1081 1068.94 1080.2 1073.07 1074.18Z"/><path fill="#61211F" transform="matrix(1.21799 0 0 1.21796 0 3.05176e-05)" d="M1036.77 337.063C1060.28 347.058 1078.57 354.334 1101.09 366.52C1117.15 375.312 1138.48 386.922 1153.09 398.185C1152.45 425.243 1152.82 453.267 1152.97 480.363C1135.27 469.91 1117.46 459.641 1099.55 449.557C1086 443.059 1065.83 431.199 1052.11 423.713C1048.33 389.273 1044.24 370.583 1036.77 337.063Z"/><path fill="#783130" transform="matrix(1.21799 0 0 1.21796 0 3.05176e-05)" d="M1101.09 366.52C1117.15 375.312 1138.48 386.922 1153.09 398.185C1152.45 425.243 1152.82 453.267 1152.97 480.363C1135.27 469.91 1117.46 459.641 1099.55 449.557C1100.8 432.221 1099.58 413.314 1099.78 395.852C1099.88 387.794 1099.29 374.05 1101.09 366.52Z"/><path fill="#FDFCFA" transform="matrix(1.21799 0 0 1.21796 0 3.05176e-05)" d="M392.499 923.749C412.649 922.332 411.473 929.086 408.049 946.688C403.587 969.625 405.919 982.748 423.47 998.939C421.087 990.209 419.68 982.628 419.564 972.687C418.161 961.139 426.03 930.64 441.553 932.891C464.223 936.178 455.809 983.569 454.187 995.018C459.551 991.079 462.511 988.328 467.379 983.715C472.174 987.56 484.492 999.12 490.133 996.181C491.437 991.198 487.417 985.844 484.82 981.293C489.568 981.958 494.321 982.59 499.078 983.187C513.654 984.878 528.181 986.962 542.644 989.437C527.758 1020.42 498.418 1039.59 463.6 1034.83C419.629 1028.82 373.444 992.634 378.975 944.195C380.129 934.088 384.807 929.231 392.499 923.749Z"/><path fill="#61211F" transform="matrix(1.21799 0 0 1.21796 0 3.05176e-05)" d="M1153.09 398.185C1168.73 409.236 1203.52 434.295 1216.44 448.539C1232.16 463.358 1256.77 486.847 1269.48 504.628C1269.52 522.047 1269.88 540.68 1269.29 558.001C1252.5 546.713 1233.2 531.803 1215.97 519.747C1194.65 505.43 1174.98 493.505 1152.97 480.363C1152.82 453.267 1152.45 425.243 1153.09 398.185Z"/><path fill="#783130" transform="matrix(1.21799 0 0 1.21796 0 3.05176e-05)" d="M1216.44 448.539C1232.16 463.358 1256.77 486.847 1269.48 504.628C1269.52 522.047 1269.88 540.68 1269.29 558.001C1252.5 546.713 1233.2 531.803 1215.97 519.747C1216.16 497.636 1214.87 470.189 1216.44 448.539Z"/><path fill="#61211F" transform="matrix(1.21799 0 0 1.21796 0 3.05176e-05)" d="M519.011 697.404C535.763 707.275 557.127 717.887 572.331 727.284C586.908 733.441 621.582 747.22 633.663 755.231C634.092 779.97 630.975 816.239 633.985 840.279C623.814 842.917 617.737 844.257 609.734 851.707C599.783 830.168 587.984 806.295 571.164 789.204C552.291 770.469 558.083 743.498 524.741 748.133L518.591 735.029C518.214 722.538 519.655 710.607 519.011 697.404Z"/><path fill="#783130" transform="matrix(1.21799 0 0 1.21796 0 3.05176e-05)" d="M519.011 697.404C535.763 707.275 557.127 717.887 572.331 727.284C572.395 739.18 573.35 779.532 571.164 789.204C552.291 770.469 558.083 743.498 524.741 748.133L518.591 735.029C518.214 722.538 519.655 710.607 519.011 697.404Z"/><path fill="#FDFCFA" transform="matrix(1.21799 0 0 1.21796 0 3.05176e-05)" d="M881.258 724.138C956.066 721.668 931.281 852.193 910.386 833.514C909.868 828.969 918.984 814.566 919.918 804.511C921.363 792.71 920.555 779.793 912.589 770.054C899.837 754.464 890.841 757.965 877.526 768.263C880.416 769.794 882.575 771.227 885.319 773.021C890.829 789.902 881.593 795.767 868.561 783.72C860.829 809.173 860.6 821.364 879.666 841.877L865.26 848.561C859.258 842.729 853.162 839.223 846.046 834.895C828.953 795.202 835.357 740.113 881.258 724.138Z"/><path fill="#3D3D3D" transform="matrix(1.21799 0 0 1.21796 0 3.05176e-05)" d="M1049 942.689C1074.03 948.818 1110.56 975.598 1130.82 992.156C1170.88 1024.89 1162.1 1056.51 1131.12 1091.02L1125.11 1096.71C1117.03 1083.37 1114.19 1079.61 1102.41 1069.11C1108.53 1063.08 1112.73 1059.27 1116.55 1051.37C1120.59 1043.18 1121 1033.67 1117.68 1025.16C1107.54 998.527 1066.99 984.718 1042.24 974.129C1044.04 964.365 1046.32 952.091 1049 942.689Z"/><path fill="#FDFCFA" transform="matrix(1.21799 0 0 1.21796 0 3.05176e-05)" d="M742.923 710.036C775.529 713.353 778.449 739.537 779.661 766.291C773.958 756.297 767.288 743.944 753.753 746.443C748.857 747.348 743.171 747.889 739.844 752.049C739.155 758.814 750.129 758.225 753.977 767.33C753.339 773.723 745.708 777.499 739.948 776.85C736.156 774.671 734.669 772.093 732.002 768.6C726.063 782.331 725.805 788.213 726.631 802.973C730.441 818.976 732.607 817.545 739.949 831.349C737.491 833.738 734.42 835.398 731.077 836.147C712.788 840.166 702.143 813.957 699.389 799.764C694.952 776.891 699.832 750.713 712.553 731.136C719.94 719.768 729.667 712.779 742.923 710.036Z"/><path fill="#3D3D3D" transform="matrix(1.21799 0 0 1.21796 0 3.05176e-05)" d="M650.275 1011.8C652.691 1015.96 655.398 1032.95 656.412 1038.48C641.349 1059.06 614.144 1067.94 589.454 1067.68C567.919 1067.44 548.975 1059.27 530.359 1049.3C525.339 1046.46 523.975 1045.55 519.538 1041.89C539.11 1027.53 540.319 1012.52 564.515 1026.44C594.017 1043.42 624.891 1031.02 650.275 1011.8Z"/><path fill="#61211F" transform="matrix(1.21799 0 0 1.21796 0 3.05176e-05)" d="M1038.57 995.159C1059.03 1002.66 1088.36 1011.98 1098.34 1033.27C1098.83 1034.34 1099.3 1035.43 1099.75 1036.52C1093.41 1059.85 1085.86 1052.83 1065.97 1058.59C1061.43 1059.9 1056.92 1063.52 1053.15 1066.45C1048.66 1066.43 1041.53 1066.2 1037.28 1066.74L1025.67 1071.07C1029.42 1053.09 1031.95 1031.17 1035.14 1012.54C1036.16 1006.29 1036.95 1001.26 1038.57 995.159Z"/><path fill="#783130" transform="matrix(1.21799 0 0 1.21796 0 3.05176e-05)" d="M1035.14 1012.54C1038.25 1020.27 1037.36 1056.27 1037.28 1066.74L1025.67 1071.07C1029.42 1053.09 1031.95 1031.17 1035.14 1012.54Z"/><path fill="#61211F" transform="matrix(1.21799 0 0 1.21796 0 3.05176e-05)" d="M621.559 925.461C626.81 928.788 630.105 931.041 635.863 933.407C639.387 935.691 640.356 935.653 641.219 940.521C643.698 954.5 645.07 969.515 646.644 983.64L635.834 993.105C615.738 1007.71 596.558 1019.49 571.412 1008.26C565.974 1005.6 562.923 1003.51 557.904 1000.15C562.074 991.725 562.698 990.604 572.204 990.544C582.976 990.102 595.635 984.574 603.26 977.004C618.481 961.894 621.108 945.703 621.559 925.461Z"/><path fill="#783130" transform="matrix(1.21799 0 0 1.21796 0 3.05176e-05)" d="M635.863 933.407C639.387 935.691 640.356 935.653 641.219 940.521C643.698 954.5 645.07 969.515 646.644 983.64L635.834 993.105C634.114 984.199 634.016 942.654 635.863 933.407Z"/><path fill="#783130" transform="matrix(1.21799 0 0 1.21796 0 3.05176e-05)" d="M557.904 1000.15C562.074 991.725 562.698 990.604 572.204 990.544C572.317 995.477 572.931 1003.83 571.412 1008.26C565.974 1005.6 562.923 1003.51 557.904 1000.15Z"/><path fill="#C2492C" transform="matrix(1.21799 0 0 1.21796 0 3.05176e-05)" d="M479.743 773.991C504.532 772.32 497.565 790.629 512.086 801.289C516.274 804.364 526.615 797.781 532.902 800.123C540.488 808.164 529.923 818.229 531.997 827.15C537.339 834.495 548.393 831.124 553.616 834.645C567.729 844.16 554.323 877.309 549.813 889.905C548.655 893.138 541.175 903.27 539.142 906.132C533.106 894.872 530.703 890.222 542.545 882.954C550.044 873.933 550.125 871.461 550.025 859.61C547.736 856.325 544.728 851.003 540.526 850.492C534.136 855.436 544.344 873.938 530.495 875.257C526.859 873.114 514.65 841.219 512.129 835.113C512.435 834.973 512.741 834.833 513.046 834.693L514.561 833.966C518.429 832.141 519.189 832.225 521.662 828.892C523.693 819.701 510.569 821.058 504.94 821.264C493.265 805.251 481.987 791.041 466.601 778.329C470.925 776.84 475.389 775.423 479.743 773.991Z"/><path fill="#C2492C" transform="matrix(1.21799 0 0 1.21796 0 3.05176e-05)" d="M863.306 959.485C874.216 958.781 880.146 959.19 890.981 960.693C873.391 996.018 843.142 1018.9 802.767 1011.55C801.982 1011.26 801.198 1010.97 800.417 1010.68C792.064 1007.55 786.744 1002.99 792.24 993.724C797.826 984.31 812.723 972.461 823.238 969.671L824.443 970.847C824.372 975.895 822.725 980.682 821.383 985.604C835.142 971.116 844.211 964.388 863.306 959.485Z"/><path fill="#61211F" transform="matrix(1.21799 0 0 1.21796 0 3.05176e-05)" d="M455.778 649.133C474.877 665.658 497.617 683.914 519.011 697.404C519.655 710.607 518.214 722.538 518.591 735.029C501.376 715.98 488.397 717.982 465.259 719.878L455.51 712.794C456.151 692.561 455.626 669.677 455.778 649.133Z"/><path fill="#61211F" transform="matrix(1.21799 0 0 1.21796 0 3.05176e-05)" d="M1269.48 504.628C1294.06 534.419 1315.46 566.691 1333.34 600.922C1331.52 606.795 1331.86 612.962 1331.93 619.132C1319.8 606.617 1308.44 592.71 1295.41 580.569C1286.76 572.502 1278.14 565.684 1269.29 558.001C1269.88 540.68 1269.52 522.047 1269.48 504.628Z"/><path fill="#BE8743" transform="matrix(1.21799 0 0 1.21796 0 3.05176e-05)" d="M603.964 902.381C606.866 913.183 606.423 931.317 603.605 942.136C602.191 946.539 601.739 948.609 598.989 952.458C592.924 962.457 587.985 966.804 576.609 970.715C572.974 971.39 569.277 971.665 565.582 971.535C551.976 971.02 534.015 967.661 520.038 966.25C507.403 964.546 494.679 963.272 482.113 961.117C474.038 959.732 474.232 955.465 474.706 948.585C481.638 949.045 487.882 948.367 495.713 948.98C507.423 949.897 519.817 951.7 531.327 952.255C539.442 957.347 558.4 964.83 567.005 959.005C590.645 953.384 595.903 944.081 596.549 920.381L596.425 919.452C597.999 914.261 600.919 906.846 603.964 902.381Z"/><path fill="#E9B24C" transform="matrix(1.21799 0 0 1.21796 0 3.05176e-05)" d="M603.964 902.381C606.866 913.183 606.423 931.317 603.605 942.136C600.89 938.337 597.914 925.614 596.549 920.381L596.425 919.452C597.999 914.261 600.919 906.846 603.964 902.381Z"/><path fill="#E9B24C" transform="matrix(1.21799 0 0 1.21796 0 3.05176e-05)" d="M576.609 970.715C575.972 969.903 575.537 968.823 575.057 967.854C575.378 964.652 574.706 965.885 576.752 963.845C590.242 964.268 589.63 954.348 598.989 952.458C592.924 962.457 587.985 966.804 576.609 970.715Z"/><path fill="#783130" transform="matrix(1.21799 0 0 1.21796 0 3.05176e-05)" d="M799.406 302.681C805.26 302.015 810.165 302.031 816.045 301.978L805.045 315.724C799.178 324.531 792.986 334.197 786.881 342.753C774.882 341.086 762.909 339.23 750.967 337.188L750.908 308.114C767.05 306.094 783.217 304.283 799.406 302.681Z"/><path fill="#61211F" transform="matrix(1.21799 0 0 1.21796 0 3.05176e-05)" d="M799.406 302.681C805.26 302.015 810.165 302.031 816.045 301.978L805.045 315.724C805.162 311.812 805.477 309.273 804.484 305.461C801.981 302.547 803.532 303.58 799.406 302.681Z"/><path fill="#FDFCFA" transform="matrix(1.21799 0 0 1.21796 0 3.05176e-05)" d="M768.35 915.616C782.086 915.366 799.283 918.119 813.984 918.433C826.162 928.406 834.921 933.002 848.674 939.816L838.755 942.139C821.527 945.577 791.937 945.967 775.231 939.37C765.222 935.419 762.255 930.887 758.49 921.857L768.35 915.616Z"/><path fill="#5E8441" transform="matrix(1.21799 0 0 1.21796 0 3.05176e-05)" d="M481.078 734.069C513.873 734.744 501.367 751.074 516.217 769.243C519.34 773.063 531.819 758.644 538.424 766.137C542.992 771.319 547.544 777.96 541.32 783.934C538.283 785.351 536.642 784.574 533.316 783.851C528.436 783.546 524.268 784.206 519.423 784.75C504.908 763.548 506.748 758.864 479.105 758.623C474.969 748.253 473.243 746.586 464.193 740.702C470.548 736.753 474.05 735.533 481.078 734.069Z"/><path fill="#61211F" transform="matrix(1.21799 0 0 1.21796 0 3.05176e-05)" d="M688.442 322.101C709.136 316.885 729.965 312.221 750.908 308.114L750.967 337.188C731.496 332.977 707.976 332.712 687.424 329.486C688.413 326.88 688.308 324.876 688.442 322.101Z"/><path fill="#5E8441" transform="matrix(1.21799 0 0 1.21796 0 3.05176e-05)" d="M431.337 724.87C446.527 724.1 450.387 727.399 459.093 739.111C450.967 739.017 438.537 738.787 430.895 741.407C423.351 743.992 417.357 750.95 408.43 751.006C400.027 749.523 393.232 749.782 384.787 749.801C389.91 743.022 393.157 733.815 401.755 730.843C412.94 732.456 409.586 748.5 431.337 724.87Z"/><path fill="#E9B24C" transform="matrix(1.21799 0 0 1.21796 0 3.05176e-05)" d="M549.97 796.863L560.245 803.352C574.464 817.176 582.648 832.364 590.762 850.402L580.402 860.734C569.711 852.568 578.335 834.981 566.674 826.167C561.16 821.998 555.396 819.884 550.04 815.368C549.314 813.132 549.941 800.311 549.97 796.863Z"/><path fill="#BE8743" transform="matrix(1.21799 0 0 1.21796 0 3.05176e-05)" d="M549.97 796.863L560.245 803.352C557.498 807.501 554.423 813.182 550.04 815.368C549.314 813.132 549.941 800.311 549.97 796.863Z"/><path fill="#C2492C" transform="matrix(1.21799 0 0 1.21796 0 3.05176e-05)" d="M568.531 907.425C587.677 919.115 583.975 947.163 560.281 941.595C552.85 935.805 551.51 933.49 546.747 925.474C550.774 921.718 555.944 916.645 560.737 914.188C563.132 914.777 563.197 914.878 565.627 914.794C567.471 912.788 567.807 910.151 568.531 907.425Z"/><path fill="#BE8743" transform="matrix(1.21799 0 0 1.21796 0 3.05176e-05)" d="M590.762 850.402C593.071 855.662 595.453 860.923 596.716 866.53C599.798 880.212 598.466 889.09 603.964 902.381C600.919 906.846 597.999 914.261 596.425 919.452C594.545 913.857 591.893 909.564 589.009 904.434C596.182 887.522 594.635 873.13 580.402 860.734L590.762 850.402Z"/><path fill="#61211F" transform="matrix(1.21799 0 0 1.21796 0 3.05176e-05)" d="M631.694 846.753C635.761 850.702 636.494 889.555 636.67 897.698L629.807 893.385C615.758 879.612 620.121 860.371 631.694 846.753Z"/><path fill="#E9B24C" transform="matrix(1.21799 0 0 1.21796 0 3.05176e-05)" d="M454.511 293.333C458.478 298.516 445.715 326.277 438.411 326.09L436.037 323.282C432.856 318.083 431.204 314.616 428.634 309.065C438.406 301.765 443.52 298.688 454.511 293.333Z"/><path fill="#FDFCFA" transform="matrix(1.21799 0 0 1.21796 0 3.05176e-05)" d="M753.099 840.909C756.472 841.463 759.859 841.608 762.509 843.634C762.45 844.422 762.488 845.088 762.226 845.776C739.762 847.534 719.787 883.28 709.503 883.37L708.273 882.046L708.484 880.62C720.44 874.252 725.936 851.582 753.099 840.909Z"/><path fill="#783130" transform="matrix(1.21799 0 0 1.21796 0 3.05176e-05)" d="M1333.34 600.922C1341.99 618.73 1356.55 646.949 1361.35 665.218C1356.62 658.379 1353.14 651.397 1348.83 644.342C1343.56 635.722 1337.73 627.404 1331.93 619.132C1331.86 612.962 1331.52 606.795 1333.34 600.922Z"/><path fill="#FDFCFA" transform="matrix(1.21799 0 0 1.21796 0 3.05176e-05)" d="M828.479 842.849C842.281 841.555 855.576 844.681 865.685 855.12C868.678 858.211 871.901 864.18 870.069 868.442L868.377 867.979L867.507 866.079C853.955 848.303 837.995 849.999 819.881 844.876C822.069 843.502 825.704 843.295 828.479 842.849Z"/><path fill="#C2492C" transform="matrix(1.21799 0 0 1.21796 0 3.05176e-05)" d="M442.437 755.279C449.563 755.007 464.627 754.236 462.801 767.324C462.456 769.796 461.407 771.229 459.321 772.316C453.584 768.754 440.26 763.138 437.794 758.022C439.111 755.848 439.37 756.379 442.437 755.279Z"/><path fill="#5E8441" transform="matrix(1.21799 0 0 1.21796 0 3.05176e-05)" d="M357.93 743.645C368.487 743.185 371.781 744.855 380.958 749.303C374.932 749.684 368.05 750.948 362.01 751.908C355.823 753.602 349.834 755.906 343.81 758.114C348.905 749.722 349.53 748.572 357.93 743.645Z"/><path fill="#828180" transform="matrix(1.21799 0 0 1.21796 0 3.05176e-05)" d="M753.099 840.909C761.449 837.592 765.219 837.603 774.26 837.574C778.038 840.579 781.414 843.306 785.452 845.997C778.519 846.086 768.913 846.489 762.226 845.776C762.488 845.088 762.45 844.422 762.509 843.634C759.859 841.608 756.472 841.463 753.099 840.909Z"/><path fill="#C2492C" transform="matrix(1.21799 0 0 1.21796 0 3.05176e-05)" d="M561.397 871.008C573.114 871.082 577.869 877.37 577.66 888.527C573.317 884.925 576.474 882.736 573.915 880.756C567.343 875.671 566.138 879.097 561.397 871.008Z"/><path fill="#783130" transform="matrix(1.21799 0 0 1.21796 0 3.05176e-05)" d="M688.442 322.101C688.308 324.876 688.413 326.88 687.424 329.486L669.895 327.674L688.442 322.101Z"/><path fill="#5E8441" transform="matrix(1.21799 0 0 1.21796 0 3.05176e-05)" d="M792.362 891.329C794.839 893.446 795.719 895.01 796.901 897.888C796.695 901.183 797.334 899.85 795.042 902.079C791.138 901.405 790.28 901.637 788.184 899.085C788.269 896.239 790.591 893.763 792.362 891.329Z"/><path fill="#783130" transform="matrix(1.21799 0 0 1.21796 0 3.05176e-05)" d="M1530.1 1209.18C1530.39 1209.32 1530.69 1209.47 1530.98 1209.62C1554.64 1208.34 1578.01 1203.4 1602.06 1206.09C1613.86 1207.44 1624.51 1207.75 1633.87 1216.13C1642.86 1224.18 1649.04 1235.24 1655.22 1245.08C1671.49 1271.02 1677.4 1293.51 1646.65 1310.69C1630.38 1319.78 1618.33 1315.71 1600.71 1315.91C1589.56 1315.91 1578.72 1316.88 1567.53 1318.06C1585.19 1355.89 1613.61 1377.98 1596.34 1423.76C1582.64 1461.14 1547.23 1485.95 1512.4 1502.06C1481.88 1516.35 1417.78 1534.17 1400.79 1491.99C1393.6 1474.16 1392.29 1445.07 1400.88 1427.39C1407.69 1413.38 1431.19 1413.7 1444.04 1412.07C1460.38 1409.99 1483.67 1400.28 1495.93 1389.5C1475.84 1383.45 1452.81 1383.58 1432.25 1378.7C1429.8 1378.12 1418.3 1375.75 1416.69 1375.83C1379.21 1356.17 1372.91 1333.21 1381.75 1292.1C1387.92 1263.41 1408.5 1257.39 1430.49 1244.06C1434.59 1241.97 1444.04 1235.71 1447.98 1234.65C1460.44 1231.28 1525.01 1214.84 1530.1 1209.18Z"/><path fill="#FDFCFA" transform="matrix(1.21799 0 0 1.21796 0 3.05176e-05)" d="M1579.07 1228.1C1590.66 1226.38 1609.24 1230.77 1620.72 1233.58C1626.88 1245.7 1644.5 1267.76 1645.09 1281.31C1645.3 1285.99 1632.24 1292.58 1628.12 1294.9C1605.64 1291.02 1592.01 1292.05 1569.52 1294.78C1555 1286.56 1539.32 1294.89 1524.54 1298.45C1519.08 1299.77 1505.64 1301.05 1504.17 1306.77C1504.96 1308.33 1506.4 1309.98 1508.04 1310.68C1520.94 1316.15 1533.47 1322.01 1545.31 1329.6C1553.13 1334.61 1553.88 1343.82 1555.24 1352.25C1568.96 1360.79 1577.78 1379.9 1577.9 1395.86C1578.04 1415.7 1568.07 1433.57 1554.05 1447.21C1530.51 1470.11 1497.6 1486.55 1465.43 1492.91C1456.81 1494.5 1442.3 1494.24 1433.36 1494.25L1431.82 1493.96C1429.9 1492.42 1426.1 1488.82 1424.57 1485.81C1419.49 1475.8 1414.39 1444.58 1425.4 1437.62C1428.85 1435.43 1446.18 1437.14 1451.41 1435.64C1478.16 1428.01 1511.45 1416.15 1528.97 1393.38C1539.89 1379.52 1532.37 1378.95 1519.49 1372.26C1477.64 1350.51 1436.7 1373.31 1403.89 1333.67C1404.47 1318.82 1400.82 1297.34 1412.02 1285.61C1433.92 1262.69 1510.86 1240.47 1541.09 1233.82C1553.61 1231.06 1566.29 1229.15 1579.07 1228.1Z"/></svg>