<?xml version="1.0" encoding="utf-8" ?>
<svg xmlns="http://www.w3.org/2000/svg" xmlns:xlink="http://www.w3.org/1999/xlink" width="1774" height="1626">
	<path fill="#01064F" d="M0 0L1772.48 0C1773.43 1.67093 1773.81 2.82439 1773.9 4.74319C1774.54 18.6506 1774 32.8025 1774 46.7338L1774.01 127.55L1774.01 373.501L1774.01 1353.98L1774 1559.43C1774 1568.83 1775.32 1617.6 1773.56 1623.65C1773.33 1624.47 1772.86 1625.24 1772.48 1626L0 1626L0 0Z"/>
	<path fill="#F8CF66" d="M545.785 624.962L1061.44 624.936C1080.17 624.936 1221.54 623.277 1229.12 626.128C1231.92 627.182 1233.51 631.031 1234.39 633.613C1232.12 645.449 1213.45 673.017 1206.67 684.562L1164.78 755.967L1013.94 1013.02L934.449 1148.5C921.847 1169.98 908.943 1195.01 895.065 1215.3C892.948 1218.39 889.92 1222.94 886.314 1224.13C884.052 1224.1 882.143 1223.97 880.15 1222.79C878.1 1221.58 876.886 1220.1 875.63 1218.09C866.65 1203.74 858.447 1188.69 849.865 1174.07L794.687 1080.01L633.648 805.567L559.595 679.271C553.743 669.212 538.024 646.429 535.881 637.001C535.209 634.043 535.303 631.523 537.066 628.978C539.015 626.165 542.653 625.413 545.785 624.962Z"/>
	<path fill="#F8CF66" d="M880.905 131.635C884.299 131.387 887.186 131.189 890.161 133.104C894.898 136.155 944.641 200.984 952.981 211.485L1171.74 486.958L1222.28 550.622C1230.66 561.189 1240.3 571.752 1247.65 583.038C1248.5 584.329 1248.99 585.82 1249.08 587.36C1249.19 589.649 1248.02 592.368 1246.46 594.027C1244.62 595.984 1242.18 596.673 1239.57 596.853C1227.19 597.707 1214.22 596.954 1201.79 596.957L1124.82 596.969L889.166 596.952L654.514 596.992L576.879 596.998C563.514 596.994 549.9 597.53 536.559 596.871C532.685 596.68 525.369 596.484 522.399 594.008C520.867 591.396 520.222 589.677 520.468 586.613C520.938 580.745 586.787 500.613 596.354 488.565L802.612 228.827L852.549 165.828C861.166 154.887 870.278 140.503 880.905 131.635Z"/>
	<path fill="#F8CF66" d="M492.977 633.143C496.974 633.637 499.133 634.024 501.751 637.256C511.484 649.268 520.503 667.993 528.59 681.812L583.656 775.692L780.652 1111.35L828.025 1192.04C834.255 1202.65 844.593 1217.26 848.718 1228.34C849.173 1229.56 849.228 1230.29 849.032 1231.56C848.601 1234.34 847.499 1236.68 845.144 1238.31C842.587 1240.07 840.401 1240.21 837.399 1240C821.067 1238.86 803.813 1234.07 787.604 1231.23L674.23 1211.3L416.712 1165.84L340.258 1152.34C326.879 1149.98 312.855 1148.35 299.766 1144.81C296.821 1144.01 292.876 1143.21 291.359 1140.4C289.515 1137 289.827 1134.88 290.996 1131.22C294.338 1120.74 298.97 1110.46 303.022 1100.23L324.775 1045.32L392.864 873.479L455.869 714.522L475.798 664.252C479.059 656.025 481.945 647.161 485.823 639.221C487.412 635.969 489.862 634.747 492.977 633.143Z"/>
	<path fill="#F8CF66" d="M1272.52 633.214C1274.55 633.391 1277.49 633.544 1279.26 634.626C1280.89 635.625 1282.09 636.802 1283.04 638.458C1288.25 647.453 1291.53 659.252 1295.42 669.045L1323.46 739.796L1437.24 1026.88L1466.69 1101.16C1470.7 1111.29 1477.27 1123.6 1479.24 1134.19C1479.64 1136.32 1479.01 1138.79 1477.73 1140.52C1475.98 1142.88 1474.05 1143.95 1471.27 1144.7C1458.35 1148.16 1444.16 1149.71 1430.94 1152.03L1350.86 1166.14L1096.81 1210.95L984.214 1230.82C967.646 1233.75 948.472 1238.82 931.976 1239.98C928.854 1240.2 926.955 1240.17 924.336 1238.27C921.474 1236.21 920.597 1233.93 920.016 1230.56C926.959 1212.95 945.599 1184.86 955.855 1167.37L1031.37 1038.63L1187.35 772.812C1213.48 728.289 1238.77 682.938 1265.92 639.042C1267.66 636.226 1269.71 634.916 1272.52 633.214Z"/>
	<path fill="#F8CF66" d="M836.376 130.724C838.049 130.506 838.553 130.639 840.115 131.109L841.067 132.987C840.9 133.938 840.753 134.751 840.327 135.629C835.898 144.753 826.495 153.679 820.075 161.758L769.076 225.994L558.728 490.955C547.835 504.676 486.908 584.575 479.622 586.348C477.307 586.911 472.268 583.504 470.25 582.187C459.101 574.913 448.56 566.058 437.942 558.018L376.923 511.791C363.607 501.606 304.733 460.004 299.185 450.503C297.924 448.343 297.619 446.748 298.403 444.314C299.212 441.798 300.997 440.177 303.139 438.779C321.91 426.527 342.334 415.929 361.765 404.714L475.87 338.882L836.376 130.724Z"/>
	<path fill="#F8CF66" d="M930.677 129.936C940.006 132.899 959.589 146.224 969.529 151.91L1305.38 345.76L1415.12 409.082L1449.97 429.21C1455.53 432.422 1461.7 435.434 1466.93 439.122C1469.67 441.058 1470.69 443.473 1471.54 446.611C1470.98 450.32 1468.65 452.992 1466.05 455.581C1459.11 462.493 1449.94 468.297 1442.09 474.231L1394.16 510.44C1374.96 524.555 1356.13 539.266 1337.13 553.672C1328.87 559.941 1296.53 587.325 1289.07 585.854C1284.86 585.024 1281.11 579.59 1278.57 576.469C1252.37 544.228 1226.88 511.331 1201.05 478.788L1046.23 283.844L966.619 183.579C954.321 168.088 938.806 150.997 928.135 134.616C928.362 131.987 928.927 131.803 930.677 129.936Z"/>
	<path fill="#F8CF66" d="M328.481 1178.72C367.841 1184.54 407.14 1192.57 446.345 1199.49L681.007 1240.89L804.864 1262.76C824.007 1266.14 848.106 1268.62 866.368 1274.44C868.919 1276.59 870.126 1278.13 870.641 1281.49C871.918 1289.81 871.096 1299.22 871.1 1307.66L871.123 1358.09L871.134 1438.04C871.132 1452.24 871.81 1466.85 870.807 1481.01C870.589 1484.1 869.79 1486.17 868.033 1488.7C866.187 1489.74 864.494 1490.66 862.362 1490.95C858.342 1491.49 854.301 1488.64 850.934 1486.77C815.492 1467.04 780.651 1446.09 745.491 1425.85L490.62 1278.76L380.415 1215.13C365.43 1206.51 341.122 1194.56 328.197 1184.44C327.176 1181.96 327.764 1181.25 328.481 1178.72Z"/>
	<path fill="#F8CF66" d="M1437.67 1179.27C1439.33 1179.23 1440.19 1179.41 1441.69 1180.12C1441.68 1182.17 1441.92 1182.82 1440.45 1184.4C1434.31 1191.01 1406.55 1204.99 1397.35 1210.28L1310.64 1260.32L1051.01 1410.2C1006.26 1436.03 961.744 1462.42 916.663 1487.65C913.001 1489.7 910.202 1491.12 905.908 1491.2C903.757 1489.97 901.414 1488.33 900.151 1486.13C898.931 1484.01 898.999 1480.06 898.939 1477.62C898.109 1443.52 899.109 1409.14 899.078 1375.01C899.051 1345.88 897.848 1316.24 899.063 1287.15C899.219 1283.42 899.508 1279.73 900.784 1276.19C910.957 1270.1 1050.08 1247.64 1073.77 1243.46L1437.67 1179.27Z"/>
	<path fill="#F8CF66" d="M285.139 480.644C285.367 480.67 285.596 480.693 285.823 480.723C289.097 481.164 291.216 482.299 293.913 484.166C322.52 503.959 349.76 526.439 377.536 547.421L429.548 586.634C440.13 594.614 454.829 603.234 462.936 613.744C464.089 617.116 461.685 623.131 460.528 626.47C456.133 639.156 450.682 651.652 445.736 664.141L417.429 735.586L331.708 951.765C325.232 968.121 286.374 1071.08 281.406 1074.7C279.226 1074.74 279.244 1074.66 277.53 1073.28C275.514 1059.25 277.031 1043.19 277.041 1028.98L277.054 938.562L277.069 625.7C277.062 611.928 275.58 492.054 277.744 486.898C279.15 483.549 282.065 482.201 285.139 480.644Z"/>
	<path fill="#F8CF66" d="M1481.45 480.626C1485.67 481.278 1487.83 482.293 1490.7 485.482C1493.99 498.319 1492.06 523.548 1492.06 537.846L1492.03 643.564L1492.13 1062.14C1492.1 1066.34 1492.06 1070.56 1490.7 1074.57C1489.58 1074.93 1489.01 1075.47 1487.88 1074.82C1486.12 1073.79 1485.27 1072.15 1484.43 1070.36C1479.06 1058.87 1474.98 1046.11 1470.28 1034.26L1438.16 953.14C1428.31 929.985 1419.54 906.221 1410.26 882.821L1355.24 744.002L1323.23 663.217C1317.09 647.711 1309.9 632.028 1305.26 616.024C1306.97 612.094 1311.93 608.167 1315.21 605.451C1326.97 595.738 1339.62 586.82 1351.78 577.605L1422.84 523.815C1434.55 514.954 1470.37 485.639 1481.45 480.626Z"/>
</svg>
